<?xml version="1.0" encoding="UTF-8" standalone="no"?>
<!-- Created with Inkscape (http://www.inkscape.org/) -->

<svg
   xmlns:dc="http://purl.org/dc/elements/1.1/"
   xmlns:cc="http://creativecommons.org/ns#"
   xmlns:rdf="http://www.w3.org/1999/02/22-rdf-syntax-ns#"
   xmlns:svg="http://www.w3.org/2000/svg"
   xmlns="http://www.w3.org/2000/svg"
   xmlns:xlink="http://www.w3.org/1999/xlink"
   xmlns:sodipodi="http://sodipodi.sourceforge.net/DTD/sodipodi-0.dtd"
   xmlns:inkscape="http://www.inkscape.org/namespaces/inkscape"
   width="300"
   height="246.88513"
   id="svg2"
   sodipodi:version="0.32"
   inkscape:version="0.48.4 r9939"
   sodipodi:docname="marrazkia.svg"
   inkscape:output_extension="org.inkscape.output.svg.inkscape"
   version="1.1">
  <defs
     id="defs4">
    <pattern
       inkscape:collect="always"
       xlink:href="#pattern6973"
       id="pattern6991"
       patternTransform="matrix(0.50145145,-0.3932712,0.1915097,0.2441898,1055.7925,-3310.2543)" />
    <pattern
       inkscape:collect="always"
       xlink:href="#pattern6966"
       id="pattern6973"
       patternTransform="matrix(0.50145145,-0.3932712,0.1915097,0.2441898,1165.7925,-3176.2543)" />
    <pattern
       patternUnits="userSpaceOnUse"
       width="7.0559702"
       height="7.75"
       patternTransform="translate(1134.722,-3179.0134)"
       id="pattern6966">
      <g
         id="g6962"
         transform="translate(-1134.722,3179.0134)">
        <rect
           style="color:#000000;fill:#ffffff;fill-opacity:1;fill-rule:nonzero;stroke:none;stroke-width:1.11259842;marker:none;visibility:visible;display:inline;overflow:visible;enable-background:accumulate"
           id="rect6952"
           width="7.0559702"
           height="7.75"
           x="1134.722"
           y="-3179.0134" />
        <rect
           style="color:#000000;fill:#000000;fill-opacity:1;fill-rule:nonzero;stroke:none;stroke-width:1.11259842;marker:none;visibility:visible;display:inline;overflow:visible;enable-background:accumulate"
           id="rect6960"
           width="3.7918601"
           height="1.1490486"
           x="1136.3541"
           y="-3175.7129" />
      </g>
    </pattern>
  </defs>
  <sodipodi:namedview
     id="base"
     pagecolor="#ffffff"
     bordercolor="#666666"
     borderopacity="1.0"
     inkscape:pageopacity="0.0"
     inkscape:pageshadow="2"
     inkscape:zoom="0.58242188"
     inkscape:cx="369.60168"
     inkscape:cy="21.869666"
     inkscape:document-units="px"
     inkscape:current-layer="layer1"
     inkscape:window-width="1398"
     inkscape:window-height="1029"
     inkscape:window-x="0"
     inkscape:window-y="19"
     showgrid="false"
     fit-margin-top="0"
     fit-margin-left="0"
     fit-margin-right="0"
     fit-margin-bottom="0"
     inkscape:window-maximized="0" />
  <metadata
     id="metadata7">
    <rdf:RDF>
      <cc:Work
         rdf:about="">
        <dc:format>image/svg+xml</dc:format>
        <dc:type
           rdf:resource="http://purl.org/dc/dcmitype/StillImage" />
        <dc:title></dc:title>
      </cc:Work>
    </rdf:RDF>
  </metadata>
  <g
     inkscape:label="Capa 1"
     inkscape:groupmode="layer"
     id="layer1"
     transform="translate(-230.57476,-322.48961)">
    <g
       id="g5052"
       transform="matrix(2.8172491,0,0,2.8172491,-2635.4307,9945.7001)">
      <path
         sodipodi:nodetypes="scscccscccccccccccccccccssscccccsssccccccccccccccccscccccccsscscsccccsccsccccccccccccccccsccccssscscccccccccccccccccscccscccsssssssssssssss"
         inkscape:connector-curvature="0"
         id="path5034-3-0"
         transform="translate(0,-5573.6222)"
         d="m 1091.0312,2157.8125 c -8.9796,0.2135 -17.9972,4.3931 -22.1874,12.4687 -4.5502,8.7682 -9.4045,12.8545 -14.2813,14.9688 -4.7293,2.0504 -9.5178,2.2105 -14.1563,2.8438 0.5643,-3.3525 1.6758,-7.1154 2.6876,-10.7813 0.8263,-2.9972 1.5293,-5.8905 1.625,-8.4375 0.094,-2.547 -0.443,-4.7806 -2.1563,-6.25 -0.6167,-0.5289 -1.6146,-0.9815 -2.7813,-1.0625 -1.166,-0.081 -2.5029,0.2265 -3.6562,1.2813 -1.7924,1.6392 -3.0648,5.0253 -3,11.1562 -1.8336,-7.071 -3.6954,-10.722 -5.5625,-12.3438 -1.1646,-1.0113 -2.3755,-1.2588 -3.4063,-1.0937 -1.0301,0.1651 -1.8767,0.6662 -2.5312,1.0625 -1.4042,0.8504 -2.0318,2.1543 -2,3.5625 0.032,1.4082 0.6316,2.9271 1.5,4.5937 1.347,2.5861 3.3582,5.6409 5.1562,8.6563 -1.6388,-1.2676 -3.1633,-2.0952 -4.4687,-2.1563 -1.903,-0.089 -3.3564,0.9984 -4.0937,2.4688 -0.6432,1.2824 -0.5146,2.7822 0.25,4.1875 0.7644,1.4053 2.1483,2.7346 4.0937,3.8437 3.735,2.1297 9.5771,3.3547 17.125,2.4376 -0.2049,1.7273 -0.2851,3.3641 0.031,4.8124 3.2958,15.107 15.8199,24.6815 29.6874,28.5313 l 0,17.4687 c -1.253,0.2419 -2.1874,1.363 -2.1874,2.6876 0,1.5018 1.2169,2.7187 2.7187,2.7187 1.5018,0 2.75,-1.2169 2.75,-2.7187 0,-1.3246 -0.961,-2.4457 -2.2187,-2.6876 l 0,-17.1562 c 0.9079,0.2317 1.8334,0.4424 2.75,0.625 0.7839,0.1564 1.5588,0.2684 2.3124,0.375 l 0,16.1562 c -1.253,0.2419 -2.1874,1.363 -2.1874,2.6876 0,1.5018 1.2169,2.7187 2.7187,2.7187 1.5018,0 2.75,-1.2169 2.75,-2.7187 0,-1.3144 -0.9755,-2.4341 -2.2187,-2.6876 l 0,-16 c 15.0192,1.7034 23.8412,-6.337 29.125,-13.0937 4.3525,-5.5673 7.9987,-12.8238 9.75,-20.2813 0.063,-0.2687 0.098,-0.5435 0.1562,-0.8124 0.9542,0.8777 2.0301,1.7029 3.0625,2.0624 0.6055,0.2113 1.4227,0.453 2.2187,0.5 0.3986,0.024 0.7813,0.01 1.1563,-0.125 0.375,-0.1322 0.7024,-0.4185 0.9063,-0.8124 0.1967,-0.3851 0.2319,-0.7851 0.125,-1.1563 -0.1078,-0.3713 -0.3189,-0.7314 -0.5626,-1.0313 -0.1207,-0.1493 -0.2693,-0.3007 -0.4062,-0.4374 -0.41,-0.4114 -0.8712,-0.7644 -1.25,-1.0313 -0.2399,-0.1695 -0.5249,-0.304 -0.8125,-0.4375 0.5097,-0.1068 0.9905,-0.2369 1.4063,-0.4375 0.5767,-0.2788 1.3405,-0.689 1.9374,-1.2187 0.2996,-0.2655 0.5474,-0.5474 0.7188,-0.9063 0.1714,-0.3589 0.2284,-0.7967 0.094,-1.2187 -0.1332,-0.4123 -0.4121,-0.72 -0.75,-0.9063 -0.3388,-0.1863 -0.7419,-0.2727 -1.125,-0.3125 -0.1928,-0.02 -0.4003,-0.031 -0.5938,-0.031 -0.5806,0 -1.1364,0.077 -1.5938,0.1562 -1.1993,0.2064 -2.5099,0.9761 -3.6874,1.7812 0.405,-5.3321 -0.3497,-10.5399 -2.75,-15.0624 -4.1743,-7.8626 -13.2066,-11.6198 -22.1876,-11.4063 z m 0.031,1 c 8.6876,-0.2065 17.2955,3.4252 21.25,10.875 3.2023,6.0327 3.4001,13.4543 1.6875,20.75 -1.7126,7.2957 -5.3329,14.4267 -9.5938,19.875 -5.5679,7.1209 -14.7971,15.5487 -31.5,12.2187 -15.038,-2.998 -29.1937,-12.6743 -32.6874,-28.6874 -0.2926,-1.339 -0.1949,-2.9917 0.031,-4.7188 4.647,-0.6538 9.6839,-0.7858 14.7188,-2.9688 5.0885,-2.2064 10.1242,-6.5239 14.75,-15.4374 3.9833,-7.6785 12.6561,-11.6998 21.3437,-11.9063 z m -66.1563,2.6875 c 0.6111,0.029 1.2666,0.2688 2,0.9062 1.9564,1.6987 4.357,6.4357 6.5938,17.5 l 0,0.031 0.5,-0.094 0.5,-0.063 0,-0.031 c -1.1689,-9.9622 0.3908,-14.4266 2.2812,-16.1562 0.9473,-0.866 1.9958,-1.0966 2.9376,-1.0313 0.9404,0.065 1.7789,0.4618 2.1874,0.8125 1.4108,1.2092 1.901,3.0783 1.8126,5.4688 -0.09,2.3903 -0.7727,5.2428 -1.5938,8.2187 -1.031,3.7369 -2.2266,7.6143 -2.7812,11.1563 -7.51,0.96 -13.2415,-0.2942 -16.7813,-2.3126 -1.8214,-1.038 -3.0713,-2.2476 -3.7187,-3.4374 -0.6477,-1.1904 -0.7334,-2.3173 -0.25,-3.2813 0.6,-1.1966 1.6424,-1.9769 3.1562,-1.9063 1.5138,0.071 3.5992,1.0499 6.0938,3.75 l 0.8124,-0.5624 c -2.1047,-4.0418 -4.9818,-7.9423 -6.6562,-11.1563 -0.8372,-1.607 -1.3495,-3.0255 -1.375,-4.1563 -0.025,-1.1304 0.3393,-1.9533 1.5,-2.6562 0.6485,-0.3927 1.4029,-0.8427 2.1875,-0.9688 0.1961,-0.031 0.3909,-0.041 0.5937,-0.031 z m 82.2188,19.7188 c -0.8975,0 -1.625,0.7273 -1.625,1.625 0,0.8973 0.7275,1.625 1.625,1.625 0.8975,0 1.625,-0.7277 1.625,-1.625 0,-0.8977 -0.7275,-1.625 -1.625,-1.625 z m 13.6562,2.125 c 0.3317,-0.027 0.6703,-0.031 0.9688,0 0.2985,0.031 0.5503,0.1263 0.7188,0.2187 0.167,0.092 0.2626,0.1563 0.3124,0.3125 0.055,0.1671 0.024,0.3169 -0.062,0.5 -0.089,0.1831 -0.2666,0.3859 -0.5,0.5938 -0.4694,0.4155 -1.1487,0.8029 -1.6876,1.0624 -0.75,0.3626 -2.0359,0.5358 -3.3124,0.5938 -0.6307,-0.015 -1.007,0.044 -1.4376,0.031 -0.02,-7e-4 -0.041,0 -0.062,0 0.05,-0.3631 0.084,-0.7308 0.125,-1.0937 1.288,-0.9293 2.9293,-1.91 4,-2.0937 0.2835,-0.049 0.6068,-0.099 0.9374,-0.125 z m -5.2187,4.2812 c 0.1872,0.01 0.3644,0.03 0.5937,0.031 0.3353,0 0.6812,-0.02 1.0313,-0.031 1.0651,0.267 2.0719,0.6191 2.6563,1.0312 0.4701,0.3318 1.0597,0.7846 1.4374,1.25 0.1901,0.2331 0.2902,0.4721 0.3438,0.6563 0.054,0.1838 0.075,0.2916 0,0.4375 -0.08,0.1564 -0.216,0.2439 -0.4062,0.3125 -0.1926,0.067 -0.4687,0.081 -0.7813,0.063 -0.6252,-0.038 -1.3734,-0.2406 -1.9375,-0.4375 -0.892,-0.3111 -2.0944,-1.2894 -3.125,-2.2813 0.064,-0.3422 0.1319,-0.6887 0.1875,-1.0312 z m -46.125,53.4688 c 0.9005,0 1.625,0.7244 1.625,1.625 0,0.9002 -0.7245,1.5937 -1.625,1.5937 -0.9005,0 -1.625,-0.6935 -1.625,-1.5937 0,-0.9006 0.7245,-1.625 1.625,-1.625 z m 6.125,0 c 0.9005,0 1.5937,0.7244 1.5937,1.625 0,0.9002 -0.6932,1.5937 -1.5937,1.5937 -0.9005,0 -1.625,-0.6935 -1.625,-1.5937 0,-0.9006 0.7245,-1.625 1.625,-1.625 z"
         style="font-size:medium;font-style:normal;font-variant:normal;font-weight:normal;font-stretch:normal;text-indent:0;text-align:start;text-decoration:none;line-height:normal;letter-spacing:normal;word-spacing:normal;text-transform:none;direction:ltr;block-progression:tb;writing-mode:lr-tb;text-anchor:start;baseline-shift:baseline;color:#000000;fill:#000000;fill-opacity:1;stroke:none;stroke-width:1.05108631px;marker:none;visibility:visible;display:inline;overflow:visible;enable-background:accumulate;font-family:Sans;-inkscape-font-specification:Sans" />
      <path
         sodipodi:nodetypes="caaac"
         inkscape:connector-curvature="0"
         id="path6102"
         d="m 1063.32,-3368.8948 c 0,0 4.232,-15.4786 10.7499,-17.9999 2.68,-1.0368 6.3695,0.3274 8.25,2.5 1.8204,2.1029 2.6761,5.862 1.2501,8.2499 -3.6758,6.1557 -20.25,7.25 -20.25,7.25 z"
         style="fill:url(#pattern6991);fill-opacity:1;stroke:#000000;stroke-width:1px;stroke-linecap:butt;stroke-linejoin:miter;stroke-opacity:1" />
    </g>
  </g>
</svg>
