<?xml version="1.0" encoding="UTF-8" standalone="no"?>
<!-- Created with Inkscape (http://www.inkscape.org/) -->

<svg
   xmlns:dc="http://purl.org/dc/elements/1.1/"
   xmlns:cc="http://creativecommons.org/ns#"
   xmlns:rdf="http://www.w3.org/1999/02/22-rdf-syntax-ns#"
   xmlns:svg="http://www.w3.org/2000/svg"
   xmlns="http://www.w3.org/2000/svg"
   xmlns:xlink="http://www.w3.org/1999/xlink"
   xmlns:sodipodi="http://sodipodi.sourceforge.net/DTD/sodipodi-0.dtd"
   xmlns:inkscape="http://www.inkscape.org/namespaces/inkscape"
   width="300"
   height="281.32077"
   id="svg2"
   sodipodi:version="0.32"
   inkscape:version="0.48.4 r9939"
   sodipodi:docname="bird1.svg"
   inkscape:output_extension="org.inkscape.output.svg.inkscape"
   version="1.1">
  <defs
     id="defs4">
    <pattern
       inkscape:collect="always"
       xlink:href="#pattern6973"
       id="pattern6991"
       patternTransform="matrix(0.50145145,-0.3932712,0.1915097,0.2441898,1055.7925,-3310.2543)" />
    <pattern
       inkscape:collect="always"
       xlink:href="#pattern6966"
       id="pattern6973"
       patternTransform="matrix(0.50145145,-0.3932712,0.1915097,0.2441898,1165.7925,-3176.2543)" />
    <pattern
       patternUnits="userSpaceOnUse"
       width="7.0559702"
       height="7.75"
       patternTransform="translate(1134.722,-3179.0134)"
       id="pattern6966">
      <g
         id="g6962"
         transform="translate(-1134.722,3179.0134)">
        <rect
           style="color:#000000;fill:#ffffff;fill-opacity:1;fill-rule:nonzero;stroke:none;stroke-width:1.11259842;marker:none;visibility:visible;display:inline;overflow:visible;enable-background:accumulate"
           id="rect6952"
           width="7.0559702"
           height="7.75"
           x="1134.722"
           y="-3179.0134" />
        <rect
           style="color:#000000;fill:#000000;fill-opacity:1;fill-rule:nonzero;stroke:none;stroke-width:1.11259842;marker:none;visibility:visible;display:inline;overflow:visible;enable-background:accumulate"
           id="rect6960"
           width="3.7918601"
           height="1.1490486"
           x="1136.3541"
           y="-3175.7129" />
      </g>
    </pattern>
    <pattern
       inkscape:collect="always"
       xlink:href="#pattern6879"
       id="pattern6894"
       patternTransform="matrix(0.70316134,0.71103036,-0.71103036,0.70316134,1000.071,-3269.2624)" />
    <pattern
       patternUnits="userSpaceOnUse"
       width="7.0559702"
       height="7.75"
       patternTransform="translate(1005.5522,-3215.8884)"
       id="pattern6879">
      <g
         id="g6859"
         transform="translate(-1005.5522,3215.8884)">
        <rect
           style="color:#000000;fill:#ffffff;fill-opacity:1;fill-rule:nonzero;stroke:none;stroke-width:1.11259842;marker:none;visibility:visible;display:inline;overflow:visible;enable-background:accumulate"
           id="rect6857"
           width="7.0559702"
           height="7.75"
           x="1005.5522"
           y="-3215.8884" />
        <rect
           style="fill:url(#pattern6855);stroke:none"
           width="2"
           height="2"
           x="1008.0802"
           y="-3213.0134"
           id="rect6853" />
      </g>
    </pattern>
    <pattern
       inkscape:collect="always"
       xlink:href="#pattern6850"
       id="pattern6855"
       patternTransform="matrix(0.61538461,0,0,0.61538461,1008.0802,-3213.0135)" />
    <pattern
       patternUnits="userSpaceOnUse"
       width="3.25"
       height="3.25"
       patternTransform="translate(1008.25,-3212.6383)"
       id="pattern6850">
      <path
         transform="matrix(0.68421053,0,0,0.68421053,-689.34211,-1614.8969)"
         d="m 1012.25,2362.6089 a 2.375,2.375 0 1 1 -4.75,0 2.375,2.375 0 1 1 4.75,0 z"
         sodipodi:ry="2.375"
         sodipodi:rx="2.375"
         sodipodi:cy="2362.6089"
         sodipodi:cx="1009.875"
         id="path6114"
         style="color:#000000;fill:#000000;fill-opacity:1;fill-rule:nonzero;stroke:none;stroke-width:1.11259842;marker:none;visibility:visible;display:inline;overflow:visible;enable-background:accumulate"
         sodipodi:type="arc" />
    </pattern>
  </defs>
  <sodipodi:namedview
     id="base"
     pagecolor="#ffffff"
     bordercolor="#666666"
     borderopacity="1.0"
     inkscape:pageopacity="0.0"
     inkscape:pageshadow="2"
     inkscape:zoom="0.96918641"
     inkscape:cx="87.402625"
     inkscape:cy="73.287779"
     inkscape:document-units="px"
     inkscape:current-layer="layer1"
     inkscape:window-width="1398"
     inkscape:window-height="1029"
     inkscape:window-x="0"
     inkscape:window-y="19"
     showgrid="false"
     fit-margin-top="0"
     fit-margin-left="0"
     fit-margin-right="0"
     fit-margin-bottom="0"
     inkscape:window-maximized="0" />
  <metadata
     id="metadata7">
    <rdf:RDF>
      <cc:Work
         rdf:about="">
        <dc:format>image/svg+xml</dc:format>
        <dc:type
           rdf:resource="http://purl.org/dc/dcmitype/StillImage" />
        <dc:title />
      </cc:Work>
    </rdf:RDF>
  </metadata>
  <g
     inkscape:label="Capa 1"
     inkscape:groupmode="layer"
     id="layer1"
     transform="translate(-893.14278,-252.80146)">
    <g
       id="g5125"
       transform="matrix(2.6969086,0,0,2.6969086,-1813.6335,9144.8015)">
      <path
         id="path5014"
         transform="translate(0,-5573.6222)"
         d="m 1041.9062,2277.5938 c -0.7954,-0.01 -1.615,0 -2.4374,0.031 -7.4167,0.2422 -13.0164,3.1543 -17.125,7.3438 -3.467,3.5344 -5.8452,7.9681 -7.4688,12.5 -0.3227,-0.4098 -0.6721,-0.8442 -1.0938,-1.2813 -0.6865,-0.7122 -1.4384,-1.3775 -2.25,-1.6875 -0.5412,-0.2068 -1.2109,-0.3729 -1.875,-0.375 -0.6521,0 -1.3356,0.1539 -1.8437,0.6562 -0.4386,0.4339 -0.6081,1.0221 -0.625,1.5938 -0.017,0.5717 0.093,1.1462 0.3125,1.625 0.5637,1.2279 1.8602,2.2251 3.125,3.0625 0.5522,0.3656 1.1032,0.6659 1.5938,0.9375 -1.9022,0.064 -4.6078,0.2694 -6.125,1.4688 -0.4127,0.326 -0.7885,0.7984 -1.0313,1.3124 -0.2428,0.5146 -0.3492,1.104 -0.1563,1.6876 0.223,0.6747 0.7572,1.1431 1.3438,1.4374 0.5866,0.2952 1.2338,0.4384 1.8125,0.5 0.8626,0.092 1.8536,-0.1711 2.7813,-0.5 0.5484,-0.1943 1.0478,-0.4137 1.5,-0.625 -1.2356,6.9289 -1.4837,14.4247 -0.063,21.5 1.9376,9.645 6.9332,18.4911 16.4688,23.7813 6.9117,3.8344 13.6827,6.2252 20.1875,7.5625 l 0,14.4062 c -1.1818,0.2558 -2.0625,1.3353 -2.0625,2.5938 0,1.4502 1.1748,2.625 2.625,2.625 1.4502,0 2.6562,-1.1748 2.6562,-2.625 0,-1.2585 -0.9071,-2.338 -2.0937,-2.5938 l 0,-14.1874 c 1.6023,0.3004 3.1827,0.5422 4.75,0.7187 l 0,13.4687 c -1.1963,0.2447 -2.0937,1.325 -2.0937,2.5938 0,1.4502 1.1748,2.625 2.625,2.625 1.4501,0 2.6562,-1.1748 2.6562,-2.625 0,-1.2585 -0.9071,-2.338 -2.0938,-2.5938 l 0,-13.3437 c 32.2403,3.0824 56.4376,-18.6875 56.4376,-18.6875 l 1.4062,-1.2812 -1.8438,0.4374 c 0,0 -5.1373,1.1414 -11.4687,-2.1874 -6.3314,-3.3293 -13.8563,-11.178 -18.4375,-29.4688 -1.9793,-7.9023 -6.0045,-16.2045 -12.8438,-22.4375 -6.4112,-5.8434 -15.3154,-9.8459 -27.25,-9.9687 z m 0,1 c 11.7116,0.1183 20.3224,4.0316 26.5626,9.7187 6.6555,6.0662 10.5893,14.1842 12.5312,21.9375 4.6278,18.4768 12.3521,26.646 18.9688,30.125 5.0199,2.6397 8.5801,2.5293 10.4062,2.3438 -3.4269,2.9529 -39.0071,32.3349 -81.125,8.9687 -9.2525,-5.1331 -14.0729,-13.6573 -15.9688,-23.0937 -1.4365,-7.1517 -1.1865,-14.7983 0.125,-21.8126 l 0.063,-0.25 c 0.052,-0.2741 0.1308,-0.541 0.1874,-0.8124 0.064,-0.312 0.1196,-0.6285 0.1876,-0.9376 0.1308,-0.5774 0.2615,-1.1484 0.4062,-1.7187 0.037,-0.1468 0.087,-0.2909 0.125,-0.4375 l 0.125,-0.5625 0,-0.031 c 0.1543,-0.5923 0.3007,-1.1837 0.4688,-1.75 0.1603,-0.5403 0.3468,-1.1097 0.5312,-1.6562 l 0.094,-0.25 0,-0.031 c 1.5942,-4.6123 4.0019,-9.1528 7.4687,-12.6876 3.9539,-4.0313 9.2953,-6.7969 16.4687,-7.0312 0.8089,-0.026 1.5945,-0.039 2.375,-0.031 z m -32.25,16.5312 c 0.4902,0 1.049,0.1401 1.5,0.3125 0.5314,0.203 1.2661,0.7737 1.9063,1.4375 0.5761,0.5974 1.0502,1.2138 1.4063,1.6875 -0.1572,0.47 -0.2971,0.9331 -0.4376,1.4063 0,0.01 0,0.022 0,0.031 -0.1548,0.5243 -0.3009,1.0626 -0.4374,1.5938 -0.6138,-0.3046 -1.4256,-0.6945 -2.4063,-1.3438 -1.1999,-0.7945 -2.3519,-1.8201 -2.75,-2.6875 -0.1498,-0.3263 -0.2618,-0.7568 -0.25,-1.1563 0.012,-0.3993 0.1212,-0.7485 0.3125,-0.9374 0.2473,-0.2446 0.6544,-0.3454 1.1562,-0.3438 z m 16.875,3.9062 c -0.9762,0 -1.75,0.7738 -1.75,1.75 0,0.9765 0.7738,1.7813 1.75,1.7813 0.9765,0 1.7813,-0.8048 1.7813,-1.7813 0,-0.9762 -0.8048,-1.75 -1.7813,-1.75 z M 1012.3438,2303 c 0.4722,-0.015 0.6136,0 0.875,0 -0.1219,0.4943 -0.2321,0.9974 -0.3438,1.5 -0.1177,0.5296 -0.2363,1.0506 -0.3438,1.5938 -0.538,0.2642 -1.2511,0.5985 -2.0312,0.875 -0.864,0.306 -1.7543,0.4974 -2.3125,0.4374 -0.4775,-0.051 -1.0278,-0.1846 -1.4687,-0.4062 -0.4412,-0.2216 -0.7647,-0.5095 -0.875,-0.8438 -0.085,-0.2572 -0.044,-0.6117 0.125,-0.9687 0.1684,-0.357 0.4673,-0.6831 0.75,-0.9063 1.0679,-0.844 3.7903,-1.2211 5.625,-1.2812 z m 37.1562,72.5938 c 0.8489,0 1.5312,0.6823 1.5312,1.5312 0,0.849 -0.6823,1.5 -1.5312,1.5 -0.8489,0 -1.5312,-0.651 -1.5312,-1.5 0,-0.8489 0.6823,-1.5312 1.5312,-1.5312 z m 5.8438,0 c 0.8488,0 1.5312,0.6823 1.5312,1.5312 0,0.849 -0.6824,1.5 -1.5312,1.5 -0.8489,0 -1.5,-0.651 -1.5,-1.5 0,-0.8489 0.6511,-1.5312 1.5,-1.5312 z"
         style="font-size:medium;font-style:normal;font-variant:normal;font-weight:normal;font-stretch:normal;text-indent:0;text-align:start;text-decoration:none;line-height:normal;letter-spacing:normal;word-spacing:normal;text-transform:none;direction:ltr;block-progression:tb;writing-mode:lr-tb;text-anchor:start;baseline-shift:baseline;color:#000000;fill:#000000;fill-opacity:1;stroke:none;stroke-width:1px;marker:none;visibility:visible;display:inline;overflow:visible;enable-background:accumulate;font-family:Sans;-inkscape-font-specification:Sans"
         inkscape:connector-curvature="0" />
      <path
         sodipodi:nodetypes="ssaaass"
         inkscape:connector-curvature="0"
         id="path5010"
         d="m 1046.4472,-3256.6581 c 6.7981,-2.0458 13.4064,1.182 21.635,3.3665 7.6184,2.0225 8.4671,9.2865 7.3225,14.6133 -1.2521,5.8271 -7.9529,10.5676 -13.8697,11.2843 -5.0241,0.6086 -10.0791,-2.9819 -13.7238,-6.4929 -4.1302,-3.9787 -8.6193,-9.5725 -7.9335,-15.2663 0.3978,-3.3007 3.3859,-6.5468 6.5695,-7.5049 z"
         style="fill:url(#pattern6894);fill-opacity:1;stroke:#000000;stroke-width:1px;stroke-linecap:butt;stroke-linejoin:miter;stroke-opacity:1" />
    </g>
  </g>
</svg>
