<?xml version="1.0" encoding="UTF-8" standalone="no"?>
<!-- Created with Inkscape (http://www.inkscape.org/) -->

<svg
   xmlns:dc="http://purl.org/dc/elements/1.1/"
   xmlns:cc="http://creativecommons.org/ns#"
   xmlns:rdf="http://www.w3.org/1999/02/22-rdf-syntax-ns#"
   xmlns:svg="http://www.w3.org/2000/svg"
   xmlns="http://www.w3.org/2000/svg"
   xmlns:sodipodi="http://sodipodi.sourceforge.net/DTD/sodipodi-0.dtd"
   xmlns:inkscape="http://www.inkscape.org/namespaces/inkscape"
   width="61.876175"
   height="100"
   id="svg2"
   sodipodi:version="0.32"
   inkscape:version="0.91pre1 r13432"
   sodipodi:docname="calligraphy.svg"
   inkscape:output_extension="org.inkscape.output.svg.inkscape"
   version="1.1"
   viewBox="0 0 61.876174 100">
  <defs
     id="defs4" />
  <sodipodi:namedview
     id="base"
     pagecolor="#ffffff"
     bordercolor="#666666"
     borderopacity="1.0"
     inkscape:pageopacity="0.0"
     inkscape:pageshadow="2"
     inkscape:zoom="0.15858407"
     inkscape:cx="-95.306089"
     inkscape:cy="-79.425459"
     inkscape:document-units="px"
     inkscape:current-layer="layer1"
     inkscape:window-width="906"
     inkscape:window-height="879"
     inkscape:window-x="0"
     inkscape:window-y="19"
     showgrid="false"
     fit-margin-top="0"
     fit-margin-left="0"
     fit-margin-right="0"
     fit-margin-bottom="0"
     inkscape:window-maximized="0" />
  <metadata
     id="metadata7">
    <rdf:RDF>
      <cc:Work
         rdf:about="">
        <dc:format>image/svg+xml</dc:format>
        <dc:type
           rdf:resource="http://purl.org/dc/dcmitype/StillImage" />
        <dc:title></dc:title>
      </cc:Work>
    </rdf:RDF>
  </metadata>
  <g
     inkscape:label="Capa 1"
     inkscape:groupmode="layer"
     id="layer1"
     transform="translate(-530.43875,-352.93672)">
    <g
       id="g61305-4-1"
       transform="matrix(0.13420304,0,0,0.13420304,429.80238,201.27863)"
       style="fill:#e49d9d;fill-opacity:1;stroke:none;stroke-width:11.04269505;stroke-miterlimit:4;stroke-dasharray:none">
      <path
         d="m 750.19341,1874.8741 44.86,-239.8 c 0,0 89.7,-172.52 106.96,-210.47 17.25,-37.96 36.23,-101.79 43.13,-108.69 6.9,-6.9 39.68,-15.53 56.92999,-5.17 24.15,10.35 39.68,36.22 39.68,43.12 -3.45,17.26 -48.30999,67.29 -82.80999,193.23 -18.98,60.38 -8.63,127.66 -8.63,127.66 0,0 -62.1,8.63 -93.16,37.95 -48.3,41.41 -106.96,163.9 -106.96,162.17 z"
         style="fill:#e49d9d;fill-opacity:1;fill-rule:evenodd;stroke:none;stroke-width:11.04269505;stroke-miterlimit:4;stroke-dasharray:none;stroke-opacity:1"
         sodipodi:nodetypes="cccccccccccc"
         inkscape:connector-curvature="0"
         id="path605-8-9" />
      <path
         id="path739-7-4"
         transform="translate(-1.2356376e-5,0)"
         d="m 977.88477,1130.0645 c -23.75577,57.3055 -41.65319,111.8952 -53.40821,160.121 12.13411,-20.1997 54.73299,-20.2911 96.96874,0.2579 40.4856,19.6276 66.3031,51.2578 60.9746,73.2226 38.0801,-52.9492 77.3139,-121.4318 112.336,-198.541 5.07,-11.12 9.8197,-22.1216 14.2597,-32.9316 0.74,-0.63 1.3697,-1.3089 1.9297,-2.1289 l -233.06053,0 z m 2.58398,175.8886 c -0.20948,0 -0.41925,0.012 -0.62891,0.016 0.43535,-0.01 0.87023,-0.012 1.30469,-0.012 -0.22542,10e-5 -0.45007,-0.01 -0.67578,0 z m 1.86133,0.01 c 0.54201,0.01 1.08226,0.031 1.62109,0.055 -0.53905,-0.024 -1.07879,-0.045 -1.62109,-0.055 z m -3.67969,0.037 c -0.54181,0.02 -1.08349,0.05 -1.625,0.082 0.54184,-0.033 1.08276,-0.062 1.625,-0.082 z m 6.42188,0.074 c 0.67535,0.043 1.34657,0.099 2.01367,0.166 -0.66698,-0.067 -1.33838,-0.1229 -2.01367,-0.166 z m -8.8711,0.055 c -0.83179,0.059 -1.65974,0.1331 -2.48633,0.2188 0.82551,-0.087 1.65532,-0.1593 2.48633,-0.2188 z m 11.86328,0.2246 c 0.50298,0.061 1.00354,0.1259 1.5,0.2012 -0.4966,-0.075 -0.99685,-0.1408 -1.5,-0.2012 z m -14.88086,0.055 c -0.73232,0.081 -1.46088,0.1733 -2.18554,0.2734 0.72398,-0.1013 1.45362,-0.1916 2.18554,-0.2734 z m 17.30079,0.2949 c 0.56304,0.097 1.1195,0.2049 1.67187,0.3223 -0.55246,-0.1172 -1.10872,-0.2255 -1.67187,-0.3223 z m -19.81055,0.024 c -3.6011,0.5123 -7.05849,1.2605 -10.25781,2.1445 l 0.0293,0.014 c 3.17691,-0.8954 6.64338,-1.6414 10.22852,-2.1582 z m 22.16601,0.4433 c 0.76607,0.1763 1.52308,0.3714 2.26368,0.5899 -0.74135,-0.2186 -1.49683,-0.4137 -2.26368,-0.5899 z m 2.70508,0.7324 c 0.59708,0.1846 1.18436,0.3819 1.76172,0.5957 -0.57713,-0.2136 -1.16493,-0.4113 -1.76172,-0.5957 z m 2.96485,1.0625 c 0.0693,0.029 0.14003,0.057 0.20898,0.086 -0.069,-0.029 -0.13963,-0.057 -0.20898,-0.086 z m 1.72853,0.7891 c 0.1253,0.062 0.249,0.1273 0.373,0.1914 -0.124,-0.064 -0.2476,-0.129 -0.373,-0.1914 z m 3.8183,1.8965 c 0.2919,0.1378 0.58,0.2816 0.8692,0.4238 -0.2893,-0.142 -0.5772,-0.2862 -0.8692,-0.4238 z m 1.9317,0.957 c 0.334,0.1723 0.6677,0.3456 0.998,0.5235 -0.3306,-0.1779 -0.6636,-0.3512 -0.998,-0.5235 z m 1.9121,1.0274 c 0.3357,0.1877 0.6723,0.3732 1.0039,0.5664 -0.3317,-0.1931 -0.6682,-0.3788 -1.0039,-0.5664 z m 1.8301,1.0625 c 0.6653,0.4005 1.3224,0.8116 1.9707,1.2324 -0.6484,-0.4207 -1.3053,-0.832 -1.9707,-1.2324 z m 2.6211,1.6543 c 0.3608,0.2398 0.7169,0.4849 1.0722,0.7304 -0.3555,-0.2457 -0.7112,-0.4905 -1.0722,-0.7304 z m 1.7812,1.2265 c 0.3401,0.2411 0.6789,0.4827 1.0137,0.7285 -0.3349,-0.2459 -0.6735,-0.4874 -1.0137,-0.7285 z m 1.3965,1.0157 c 1.9119,1.4228 3.737,2.9202 5.4668,4.4648 -1.7307,-1.546 -3.5552,-3.042 -5.4668,-4.4648 z m 5.7285,4.6992 c 0.8646,0.7786 1.7092,1.5654 2.5254,2.3632 -0.8161,-0.7979 -1.6614,-1.5848 -2.5254,-2.3632 z m 2.5254,2.3632 c 0.7996,0.7816 1.5687,1.5722 2.3203,2.3653 -0.7518,-0.7934 -1.5212,-1.5838 -2.3203,-2.3653 z m 2.6016,2.6583 c 0.7364,0.7842 1.4506,1.5732 2.1386,2.3613 -0.6891,-0.7891 -1.4017,-1.5765 -2.1386,-2.3613 z m 2.3398,2.5937 c 0.6986,0.8057 1.3751,1.612 2.0215,2.4141 -0.6473,-0.8024 -1.323,-1.6087 -2.0215,-2.4141 z m 2.0215,2.4141 c 0.347,0.4305 0.6645,0.8553 0.9961,1.2832 -0.3329,-0.4289 -0.6481,-0.8519 -0.9961,-1.2832 z m 2.2285,2.9023 c 0.3884,0.5268 0.7593,1.0477 1.1231,1.5664 -0.366,-0.5204 -0.7329,-1.0382 -1.1231,-1.5664 z m 1.8399,2.6016 c 0.4395,0.6488 0.8727,1.296 1.2714,1.9258 -0.4029,-0.6333 -0.8284,-1.2742 -1.2714,-1.9258 z m 1.3105,1.9863 c 1.4865,2.3532 2.6853,4.5586 3.5703,6.502 l 0.049,0.023 c -0.911,-1.9623 -2.121,-4.1658 -3.6191,-6.5254 z"
         style="fill:#e49d9d;fill-opacity:1;fill-rule:evenodd;stroke:none;stroke-width:11.04269505;stroke-miterlimit:4;stroke-dasharray:none;stroke-opacity:1"
         inkscape:connector-curvature="0" />
      <path
         d="m 1080.7554,1368.3141 c -6.93,14.38 -28.12,19.63 -54.18,15.38 8.75,-15.44 14.06,-24.31 15.18,-29.81 0,-6.94 -15.56,-32.82 -39.68,-43.13 -17.24999,-10.37 -49.99999,-1.75 -56.93999,5.19 -2,2 -5,8.75 -8.88,19.06 -13.31,-15.31 -18.56,-31.12 -12.74,-43.06 10.68,-21.94 54.5,-22.63 97.92999,-1.5 43.44,21.06 70,55.94 59.31,77.87 z"
         inkscape:connector-curvature="0"
         style="fill:#e49d9d;fill-opacity:1;fill-rule:evenodd;stroke:none;stroke-width:11.04269505;stroke-miterlimit:4;stroke-dasharray:none;stroke-opacity:1"
         id="path731-7-4" />
      <ellipse
         transform="matrix(0.86544989,0.50099551,-0.42602029,0.90471361,0,0)"
         style="fill:#e49d9d;fill-opacity:1;fill-rule:evenodd;stroke:none;stroke-width:11.06252193;stroke-miterlimit:4;stroke-dasharray:none;stroke-opacity:1"
         id="path740-3-2"
         cx="1440.4683"
         cy="981.77686"
         rx="6.7785492"
         ry="17.203428"
         d="m 1447.2468,981.77686 a 6.7785492,17.203428 0 0 1 -6.7785,17.20342 6.7785492,17.203428 0 0 1 -6.7786,-17.20342 6.7785492,17.203428 0 0 1 6.7786,-17.20343 6.7785492,17.203428 0 0 1 6.7785,17.20343 z" />
      <path
         d="m 820.86541,1623.6941 c -40.382,99.75 -70.984,251.51 -70.984,251.51"
         style="fill:#e49d9d;fill-opacity:1;stroke:none;stroke-width:11.04269505;stroke-miterlimit:4;stroke-dasharray:none;stroke-opacity:1"
         sodipodi:nodetypes="cc"
         inkscape:connector-curvature="0"
         id="path748-5-8" />
      <path
         d="m 1034.9754,1316.9441 c 5.14,2.58 14.45,3.34 18.47,6.17 7.87,5.56 14.15,15.65 14.4,25.06 0.5,18.41 -19.46,-0.48 -16.07,-0.57 12.35,-0.33 -19.37,-32.67 -16.8,-30.66 z"
         inkscape:connector-curvature="0"
         style="fill:#e49d9d;fill-opacity:1;fill-rule:evenodd;stroke:none;stroke-width:11.04269505;stroke-miterlimit:4;stroke-dasharray:none;stroke-opacity:1"
         id="path658-0-5" />
    </g>
  </g>
</svg>
