<?xml version="1.0" encoding="UTF-8" standalone="no"?>
<!-- Created with Inkscape (http://www.inkscape.org/) -->

<svg
   xmlns:dc="http://purl.org/dc/elements/1.1/"
   xmlns:cc="http://creativecommons.org/ns#"
   xmlns:rdf="http://www.w3.org/1999/02/22-rdf-syntax-ns#"
   xmlns:svg="http://www.w3.org/2000/svg"
   xmlns="http://www.w3.org/2000/svg"
   xmlns:sodipodi="http://sodipodi.sourceforge.net/DTD/sodipodi-0.dtd"
   xmlns:inkscape="http://www.inkscape.org/namespaces/inkscape"
   width="128.44972"
   height="24.073389"
   id="svg2"
   sodipodi:version="0.32"
   inkscape:version="0.91pre1 r13432"
   sodipodi:docname="cc-by-sa.svg"
   inkscape:output_extension="org.inkscape.output.svg.inkscape"
   version="1.1"
   viewBox="0 0 128.44972 24.073389">
  <defs
     id="defs4" />
  <sodipodi:namedview
     id="base"
     pagecolor="#ffffff"
     bordercolor="#666666"
     borderopacity="1.0"
     inkscape:pageopacity="0.0"
     inkscape:pageshadow="2"
     inkscape:zoom="3.7008305"
     inkscape:cx="99.266004"
     inkscape:cy="22.380873"
     inkscape:document-units="px"
     inkscape:current-layer="layer1"
     inkscape:window-width="1598"
     inkscape:window-height="879"
     inkscape:window-x="0"
     inkscape:window-y="19"
     showgrid="false"
     fit-margin-top="0"
     fit-margin-left="0"
     fit-margin-right="0"
     fit-margin-bottom="0"
     inkscape:window-maximized="0" />
  <metadata
     id="metadata7">
    <rdf:RDF>
      <cc:Work
         rdf:about="">
        <dc:format>image/svg+xml</dc:format>
        <dc:type
           rdf:resource="http://purl.org/dc/dcmitype/StillImage" />
        <dc:title></dc:title>
      </cc:Work>
    </rdf:RDF>
  </metadata>
  <g
     inkscape:label="Capa 1"
     inkscape:groupmode="layer"
     id="layer1"
     transform="translate(-457.14733,-483.28504)">
    <path
       style="color:#000000;font-style:normal;font-variant:normal;font-weight:normal;font-stretch:normal;font-size:medium;line-height:normal;font-family:sans-serif;text-indent:0;text-align:start;text-decoration:none;text-decoration-line:none;text-decoration-style:solid;text-decoration-color:#000000;letter-spacing:normal;word-spacing:normal;text-transform:none;direction:ltr;block-progression:tb;writing-mode:lr-tb;baseline-shift:baseline;text-anchor:start;clip-rule:nonzero;display:inline;overflow:visible;visibility:visible;opacity:1;isolation:auto;color-interpolation:sRGB;color-interpolation-filters:linearRGB;fill:#666666;fill-opacity:1;fill-rule:nonzero;stroke:none;stroke-width:0.24186611;stroke-linecap:butt;stroke-linejoin:miter;stroke-miterlimit:4;stroke-dasharray:none;stroke-dashoffset:0;stroke-opacity:1;color-rendering:auto;image-rendering:auto;shape-rendering:auto;text-rendering:auto;enable-background:accumulate"
       d="m 460.03088,483.82546 0,0.7654 0,22.22715 122.68263,0 0,-22.99255 -122.68263,0 z m 1.53422,1.53422 12.49055,0 c -1.06892,0.51737 -2.06011,1.20046 -2.96712,2.06546 -2.31412,2.22448 -3.47387,4.8582 -3.47387,7.89835 0,3.04089 1.15975,5.65167 3.47387,7.83892 0.94179,0.89037 1.95939,1.59337 3.04751,2.12131 l -12.57094,0 0,-19.92404 z m 23.1463,0 96.46439,0 0,19.92404 -96.55526,0 c 1.11956,-0.53382 2.17125,-1.24348 3.14534,-2.14933 2.23562,-2.09467 3.35156,-4.6962 3.35156,-7.8109 0,-3.11401 -1.13628,-5.74844 -3.41096,-7.89835 -0.9144,-0.86456 -1.91597,-1.54848 -2.99507,-2.06546 z m -5.32263,0.8423 c 2.66821,0 4.93793,0.88528 6.81142,2.65604 1.87387,1.77109 2.80986,3.92524 2.80986,6.46547 -2e-5,2.55954 -0.92012,4.68307 -2.76443,6.37105 -1.94247,1.8173 -4.2277,2.72597 -6.85685,2.72597 -2.62916,0 -4.89754,-0.89892 -6.80095,-2.69803 -1.90306,-1.79826 -2.85527,-3.93264 -2.85527,-6.39899 0,-2.46706 0.9636,-4.61557 2.88673,-6.45145 1.84392,-1.78007 4.10126,-2.67006 6.76949,-2.67006 z m 45.78581,4.67255 c -1.10295,0 -1.949,0.22826 -2.53726,0.6885 -0.58825,0.46029 -0.88068,1.11944 -0.88068,1.97461 0,0.68251 0.20833,1.22245 0.62906,1.62505 0.42486,0.4026 1.0945,0.69686 2.00955,0.88073 l 0.91213,0.18893 c 0.55554,0.11541 0.92755,0.24537 1.11137,0.3912 0.18792,0.14584 0.2796,0.35377 0.2796,0.62197 0,0.29927 -0.13527,0.53068 -0.40888,0.69198 -0.27372,0.16104 -0.66656,0.24093 -1.18126,0.24093 -0.50651,0 -1.0358,-0.0742 -1.58315,-0.22002 -0.54331,-0.14958 -1.10738,-0.36962 -1.69152,-0.66052 l 0,1.86973 c 0.58419,0.20352 1.17022,0.35823 1.75441,0.46159 0.58412,0.0982 1.16387,0.15334 1.74392,0.15334 1.22958,0 2.14353,-0.22825 2.73995,-0.68846 0.60048,-0.4641 0.90167,-1.17075 0.90168,-2.1179 -10e-6,-0.72089 -0.21412,-1.27585 -0.64306,-1.66704 -0.42893,-0.39119 -1.15315,-0.6857 -2.17029,-0.87717 l -1.003,-0.18894 c -0.47794,-0.092 -0.80874,-0.20163 -0.99255,-0.32842 -0.17974,-0.13062 -0.27256,-0.30878 -0.27256,-0.53829 0,-0.30688 0.1358,-0.53576 0.40539,-0.68145 0.26959,-0.14583 0.68743,-0.21683 1.25116,-0.21683 0.42479,0 0.87456,0.0506 1.3525,0.16105 0.47793,0.10718 0.96884,0.26437 1.47131,0.47549 l 0,-1.81728 c -0.56783,-0.14207 -1.11851,-0.24537 -1.64955,-0.31448 -0.53104,-0.0711 -1.04576,-0.10844 -1.54823,-0.10844 z m -24.24367,0.15407 0,8.58677 3.91422,0 c 1.21732,0 2.12606,-0.20162 2.72248,-0.60801 0.59636,-0.40643 0.89466,-1.02402 0.89468,-1.85231 0,-0.54082 -0.13814,-0.99839 -0.41587,-1.36993 -0.27783,-0.37217 -0.67124,-0.62705 -1.17777,-0.7654 0.3962,-0.14207 0.69683,-0.35885 0.90517,-0.65 0.20834,-0.29546 0.31454,-0.65164 0.31454,-1.06941 0,-0.79379 -0.28785,-1.36987 -0.85973,-1.73 -0.56781,-0.36012 -1.48702,-0.54144 -2.75742,-0.54144 l -3.54026,0 z m 7.32517,0 3.48785,4.96961 0,3.61716 2.35901,0 0,-3.61716 3.48435,-4.96961 -2.58617,0 -2.08292,3.06146 -2.08293,-3.06146 -2.57919,0 z m 25.09291,0 -3.38999,8.58677 2.37299,0 0.58013,-1.56216 3.69054,0 0.57664,1.56216 2.3695,0 -3.3865,-8.58677 -2.81335,0 z m -57.2279,0.84225 c -0.97945,0 -1.79735,0.31129 -2.45336,0.9331 -0.65606,0.62196 -0.98205,1.46186 -0.98205,2.51979 0,1.07687 0.31707,1.92065 0.95409,2.53374 0.63594,0.61247 1.48355,0.91915 2.54073,0.91915 1.3708,0 2.39722,-0.57571 3.08245,-1.72646 l -1.43637,-0.72341 c -0.29356,0.64359 -0.78296,0.96454 -1.46785,0.96454 -1.03712,0 -1.55519,-0.66179 -1.55519,-1.98158 0,-1.3194 0.51806,-1.97802 1.55519,-1.97802 0.58666,0 1.02719,0.30306 1.32105,0.90862 l 1.55519,-0.75139 c -0.62717,-1.07834 -1.66497,-1.61808 -3.11388,-1.61808 z m 6.80095,0 c -0.99735,0 -1.81917,0.31129 -2.46386,0.9331 -0.64503,0.62196 -0.96807,1.46186 -0.96807,2.51979 0,1.07687 0.3196,1.92065 0.9541,2.53374 0.63556,0.61247 1.4815,0.91915 2.53724,0.91915 1.36824,0 2.39481,-0.57571 3.07895,-1.72646 l -1.47132,-0.72341 c -0.27415,0.64359 -0.7539,0.96454 -1.43989,0.96454 -1.05793,0 -1.58663,-0.66179 -1.58663,-1.98158 0,-1.3194 0.5287,-1.97802 1.58663,-1.97802 0.56846,0 0.99886,0.30306 1.2931,0.90862 l 1.58666,-0.75139 c -0.62503,-1.07834 -1.66056,-1.61808 -3.10691,-1.61808 z m 20.36788,0.66402 1.30359,0 c 0.37171,0 0.6537,0.0805 0.84575,0.23774 0.19198,0.15407 0.29001,0.37599 0.29005,0.67106 0,0.29863 -0.0981,0.52813 -0.29005,0.68145 -0.19198,0.15281 -0.47407,0.22698 -0.84575,0.22698 l -1.30359,0 0,-1.81731 z m 31.46749,0.50658 1.25115,3.41788 -2.50579,0 1.25464,-3.41788 z m -18.44224,2.34846 0,1.67402 3.84781,0 0,-1.67402 -3.84781,0 z m -13.02525,0.46855 1.38396,0 c 0.47799,-5e-5 0.83599,0.0952 1.07291,0.2828 0.23699,0.18385 0.35645,0.46283 0.35645,0.83524 0,0.3798 -0.12257,0.66162 -0.36349,0.84929 -0.23693,0.18829 -0.59205,0.2834 -1.06593,0.2834 l -1.38395,0 0,-2.25065 z"
       id="rect3749"
       inkscape:connector-curvature="0" />
  </g>
</svg>
