<?xml version="1.0" encoding="UTF-8" standalone="no"?>
<!-- Created with Inkscape (http://www.inkscape.org/) -->

<svg
   xmlns:dc="http://purl.org/dc/elements/1.1/"
   xmlns:cc="http://creativecommons.org/ns#"
   xmlns:rdf="http://www.w3.org/1999/02/22-rdf-syntax-ns#"
   xmlns:svg="http://www.w3.org/2000/svg"
   xmlns="http://www.w3.org/2000/svg"
   xmlns:sodipodi="http://sodipodi.sourceforge.net/DTD/sodipodi-0.dtd"
   xmlns:inkscape="http://www.inkscape.org/namespaces/inkscape"
   width="128.44972"
   height="24.073389"
   id="svg2"
   sodipodi:version="0.32"
   inkscape:version="0.91pre1 r13432"
   sodipodi:docname="cc-by-sa.svg"
   inkscape:output_extension="org.inkscape.output.svg.inkscape"
   version="1.1"
   viewBox="0 0 128.44972 24.073389">
  <defs
     id="defs4" />
  <sodipodi:namedview
     id="base"
     pagecolor="#ffffff"
     bordercolor="#666666"
     borderopacity="1.0"
     inkscape:pageopacity="0.0"
     inkscape:pageshadow="2"
     inkscape:zoom="0.95703125"
     inkscape:cx="-107.14732"
     inkscape:cy="-25.003757"
     inkscape:document-units="px"
     inkscape:current-layer="layer1"
     inkscape:window-width="1598"
     inkscape:window-height="879"
     inkscape:window-x="0"
     inkscape:window-y="19"
     showgrid="false"
     fit-margin-top="0"
     fit-margin-left="0"
     fit-margin-right="0"
     fit-margin-bottom="0"
     inkscape:window-maximized="0" />
  <metadata
     id="metadata7">
    <rdf:RDF>
      <cc:Work
         rdf:about="">
        <dc:format>image/svg+xml</dc:format>
        <dc:type
           rdf:resource="http://purl.org/dc/dcmitype/StillImage" />
        <dc:title></dc:title>
      </cc:Work>
    </rdf:RDF>
  </metadata>
  <g
     inkscape:label="Capa 1"
     inkscape:groupmode="layer"
     id="layer1"
     transform="translate(-457.14733,-483.28504)">
    <path
       style="color:#000000;font-style:normal;font-variant:normal;font-weight:normal;font-stretch:normal;font-size:medium;line-height:normal;font-family:sans-serif;text-indent:0;text-align:start;text-decoration:none;text-decoration-line:none;text-decoration-style:solid;text-decoration-color:#000000;letter-spacing:normal;word-spacing:normal;text-transform:none;direction:ltr;block-progression:tb;writing-mode:lr-tb;baseline-shift:baseline;text-anchor:start;clip-rule:nonzero;display:inline;overflow:visible;visibility:visible;opacity:1;isolation:auto;color-interpolation:sRGB;color-interpolation-filters:linearRGB;fill:#666666;fill-opacity:1;fill-rule:nonzero;stroke:none;stroke-width:0.24186611;stroke-linecap:butt;stroke-linejoin:miter;stroke-miterlimit:4;stroke-dasharray:none;stroke-dashoffset:0;stroke-opacity:1;color-rendering:auto;image-rendering:auto;shape-rendering:auto;text-rendering:auto;enable-background:accumulate"
       d="m 457.14732,483.28504 0,0.80138 0,23.27201 128.44973,0 0,-24.07339 -128.44973,0 z m 1.60635,1.60634 13.0777,0 c -1.11916,0.54169 -2.15695,1.25689 -3.10659,2.16256 -2.42291,2.32904 -3.63718,5.08657 -3.63718,8.26963 0,3.18384 1.21427,5.91735 3.63718,8.20742 0.98606,0.93222 2.05149,1.66827 3.19076,2.22103 l -13.16187,0 0,-20.86064 z m 24.23436,0 100.99901,0 0,20.86064 -101.09415,0 c 1.17219,-0.55892 2.27332,-1.30194 3.2932,-2.25037 2.34071,-2.19314 3.50911,-4.91696 3.50911,-8.17808 0,-3.26039 -1.1897,-6.01866 -3.57131,-8.26963 -0.95738,-0.90521 -2.00603,-1.62128 -3.13586,-2.16256 z m -5.57284,0.8819 c 2.79364,0 5.17006,0.92689 7.13162,2.78089 1.96195,1.85435 2.94194,4.10976 2.94194,6.7694 -2e-5,2.67986 -0.96337,4.90321 -2.89438,6.67054 -2.03378,1.90273 -4.42643,2.85412 -7.17918,2.85412 -2.75275,0 -5.12776,-0.94118 -7.12065,-2.82486 -1.99251,-1.8828 -2.98949,-4.11751 -2.98949,-6.6998 0,-2.58303 1.0089,-4.83254 3.02243,-6.75472 1.9306,-1.86375 4.29406,-2.79557 7.08771,-2.79557 z m 47.93812,4.8922 c -1.15479,0 -2.04062,0.23898 -2.65653,0.72086 -0.6159,0.48193 -0.92208,1.17206 -0.92208,2.06743 0,0.7146 0.21813,1.27992 0.65863,1.70144 0.44484,0.42153 1.14595,0.72962 2.10402,0.92213 l 0.95501,0.19782 c 0.58165,0.12083 0.97115,0.2569 1.16361,0.40959 0.19675,0.15269 0.29274,0.3704 0.29274,0.6512 0,0.31334 -0.14163,0.55563 -0.4281,0.72451 -0.28659,0.16861 -0.69789,0.25226 -1.23679,0.25226 -0.53032,0 -1.08449,-0.0777 -1.65757,-0.23036 -0.56885,-0.15662 -1.15943,-0.387 -1.77103,-0.69157 l 0,1.95762 c 0.61165,0.21309 1.22523,0.37507 1.83688,0.48329 0.61158,0.10284 1.21858,0.16055 1.8259,0.16055 1.28738,0 2.24429,-0.23898 2.86875,-0.72083 0.6287,-0.48592 0.94405,-1.22578 0.94406,-2.21746 -1e-5,-0.75477 -0.22418,-1.33582 -0.67329,-1.7454 -0.44909,-0.40958 -1.20735,-0.71794 -2.27231,-0.91841 l -1.05015,-0.19782 c -0.5004,-0.0963 -0.84675,-0.21111 -1.0392,-0.34386 -0.18819,-0.13676 -0.28538,-0.32329 -0.28538,-0.56359 0,-0.32131 0.14219,-0.56094 0.42445,-0.71348 0.28226,-0.15269 0.71975,-0.22703 1.30997,-0.22703 0.44476,0 0.91568,0.053 1.41608,0.16862 0.5004,0.11222 1.01439,0.2768 1.54048,0.49785 l 0,-1.90271 c -0.59453,-0.14875 -1.17109,-0.25691 -1.7271,-0.32926 -0.556,-0.0744 -1.09491,-0.11354 -1.621,-0.11354 z m -25.38332,0.16131 0,8.99042 4.09822,0 c 1.27455,0 2.226,-0.2111 2.85046,-0.6366 0.62439,-0.42553 0.93672,-1.07215 0.93674,-1.93938 0,-0.56624 -0.14464,-1.04532 -0.43542,-1.43433 -0.29089,-0.38966 -0.70279,-0.65652 -1.23314,-0.80138 0.41483,-0.14875 0.72959,-0.37572 0.94772,-0.68055 0.21814,-0.30935 0.32933,-0.68228 0.32933,-1.11968 0,-0.83111 -0.30138,-1.43427 -0.90014,-1.81133 -0.59451,-0.37705 -1.55693,-0.56689 -2.88705,-0.56689 l -3.70668,0 z m 7.66952,0 3.6518,5.20322 0,3.7872 2.46991,0 0,-3.7872 3.64814,-5.20322 -2.70774,0 -2.18084,3.20537 -2.18084,-3.20537 -2.70043,0 z m 26.27248,0 -3.54935,8.99042 2.48454,0 0.6074,-1.6356 3.86403,0 0.60374,1.6356 2.48089,0 -3.54569,-8.99042 -2.9456,0 z m -59.91808,0.88184 c -1.0255,0 -1.88184,0.32592 -2.56869,0.97696 -0.6869,0.6512 -1.02822,1.53058 -1.02822,2.63824 0,1.1275 0.33198,2.01094 0.99894,2.65285 0.66584,0.64126 1.55329,0.96236 2.66017,0.96236 1.43524,0 2.50991,-0.60277 3.22735,-1.80762 l -1.50389,-0.75742 c -0.30736,0.67385 -0.81977,1.00989 -1.53685,1.00989 -1.08588,0 -1.6283,-0.6929 -1.6283,-2.07473 0,-1.38143 0.54241,-2.07101 1.6283,-2.07101 0.61424,0 1.07547,0.31731 1.38315,0.95133 l 1.6283,-0.78671 c -0.65666,-1.12903 -1.74324,-1.69414 -3.26026,-1.69414 z m 7.12065,0 c -1.04424,0 -1.90469,0.32592 -2.57968,0.97696 -0.67536,0.6512 -1.01358,1.53058 -1.01358,2.63824 0,1.1275 0.33462,2.01094 0.99895,2.65285 0.66544,0.64126 1.55114,0.96236 2.65651,0.96236 1.43256,0 2.50739,-0.60277 3.22369,-1.80762 l -1.54049,-0.75742 c -0.28704,0.67385 -0.78934,1.00989 -1.50757,1.00989 -1.10767,0 -1.66122,-0.6929 -1.66122,-2.07473 0,-1.38143 0.55355,-2.07101 1.66122,-2.07101 0.59518,0 1.04581,0.31731 1.35388,0.95133 l 1.66125,-0.78671 c -0.65441,-1.12903 -1.73862,-1.69414 -3.25296,-1.69414 z m 21.32534,0.69523 1.36486,0 c 0.38919,0 0.68443,0.0843 0.88551,0.24892 0.20101,0.16131 0.30364,0.39366 0.30369,0.70261 0,0.31266 -0.10266,0.55295 -0.30369,0.71348 -0.201,0.15999 -0.49635,0.23765 -0.88551,0.23765 l -1.36486,0 0,-1.90274 z m 32.94671,0.5304 1.30997,3.57855 -2.62358,0 1.31361,-3.57855 z m -19.30917,2.45886 0,1.75271 4.02869,0 0,-1.75271 -4.02869,0 z m -13.63754,0.49057 1.44901,0 c 0.50046,-5e-5 0.87529,0.0997 1.12335,0.29609 0.24813,0.1925 0.3732,0.48459 0.3732,0.87451 0,0.39765 -0.12833,0.69272 -0.38057,0.88921 -0.24807,0.19714 -0.61988,0.29672 -1.11604,0.29672 l -1.44901,0 0,-2.35645 z"
       id="rect3749"
       inkscape:connector-curvature="0" />
  </g>
</svg>
