<?xml version="1.0" encoding="UTF-8" standalone="no"?>
<!-- Created with Inkscape (http://www.inkscape.org/) -->

<svg
   xmlns:dc="http://purl.org/dc/elements/1.1/"
   xmlns:cc="http://creativecommons.org/ns#"
   xmlns:rdf="http://www.w3.org/1999/02/22-rdf-syntax-ns#"
   xmlns:svg="http://www.w3.org/2000/svg"
   xmlns="http://www.w3.org/2000/svg"
   xmlns:sodipodi="http://sodipodi.sourceforge.net/DTD/sodipodi-0.dtd"
   xmlns:inkscape="http://www.inkscape.org/namespaces/inkscape"
   width="70.191406"
   height="70.191399"
   id="svg2"
   sodipodi:version="0.32"
   inkscape:version="0.91pre1 r13432"
   sodipodi:docname="cone.svg"
   inkscape:output_extension="org.inkscape.output.svg.inkscape"
   version="1.1"
   viewBox="0 0 70.191405 70.1914">
  <defs
     id="defs4" />
  <sodipodi:namedview
     id="base"
     pagecolor="#ffffff"
     bordercolor="#666666"
     borderopacity="1.0"
     inkscape:pageopacity="0.0"
     inkscape:pageshadow="2"
     inkscape:zoom="0.67672329"
     inkscape:cx="21.143663"
     inkscape:cy="41.728298"
     inkscape:document-units="px"
     inkscape:current-layer="layer1"
     inkscape:window-width="1598"
     inkscape:window-height="879"
     inkscape:window-x="0"
     inkscape:window-y="19"
     showgrid="false"
     inkscape:snap-page="true"
     showguides="true"
     inkscape:guide-bbox="true"
     fit-margin-top="0"
     fit-margin-left="0"
     fit-margin-right="0"
     fit-margin-bottom="0"
     inkscape:window-maximized="0">
    <sodipodi:guide
       orientation="-0.70710678,0.70710678"
       position="35.289749,35.138362"
       id="guide4138" />
  </sodipodi:namedview>
  <metadata
     id="metadata7">
    <rdf:RDF>
      <cc:Work
         rdf:about="">
        <dc:format>image/svg+xml</dc:format>
        <dc:type
           rdf:resource="http://purl.org/dc/dcmitype/StillImage" />
        <dc:title></dc:title>
      </cc:Work>
    </rdf:RDF>
  </metadata>
  <g
     inkscape:label="Capa 1"
     inkscape:groupmode="layer"
     id="layer1"
     transform="translate(-52.089844,-465.3418)">
    <g
       id="g4426">
      <path
         id="rect4134"
         transform="translate(-1.2356376e-5,0)"
         d="m 52.089844,465.3418 0,70.1914 0.152344,0 70.039062,-70.04101 0,-0.15039 -70.191406,0 z"
         style="color:#000000;text-decoration:none;text-decoration-line:none;text-decoration-style:solid;text-decoration-color:#000000;clip-rule:nonzero;display:inline;overflow:visible;visibility:visible;opacity:1;isolation:auto;color-interpolation:sRGB;color-interpolation-filters:linearRGB;fill:#d35f5f;fill-opacity:1;fill-rule:nonzero;stroke:none;stroke-width:2.01799989;stroke-linecap:butt;stroke-linejoin:miter;stroke-miterlimit:4;stroke-dasharray:none;stroke-dashoffset:0;stroke-opacity:1;marker:none;color-rendering:auto;image-rendering:auto;shape-rendering:auto;text-rendering:auto;enable-background:accumulate"
         inkscape:connector-curvature="0" />
      <path
         inkscape:connector-curvature="0"
         id="path4470"
         d="m 71.57674,470.88459 c -0.609993,0 -1.160476,0.12162 -1.595036,0.33657 -0.26097,0.12906 -0.466843,0.3315 -0.614599,0.55607 l -0.117005,-0.0586 -0.08783,0.38044 -4.477813,18.26246 -4.697932,2.75107 c -0.710761,0.41036 -1.250276,0.69963 -1.638929,0.98043 -0.196062,0.14168 -0.361062,0.28926 -0.482898,0.43902 -0.121,0.14873 -0.204877,0.33452 -0.204877,0.54143 l 0.07315,0.83408 c 0,0.35914 0.182545,0.70066 0.541433,1.00971 0.358823,0.30905 0.896057,0.63872 1.741367,1.12678 l 8.545895,4.93205 c 1.425408,0.82297 2.18139,1.28773 3.014468,1.28773 0.833078,0 1.574471,-0.46476 2.999847,-1.28773 l 8.560526,-4.93205 c 0.840822,-0.48548 1.378742,-0.78624 1.741368,-1.08288 0.36269,-0.29661 0.541432,-0.65298 0.541432,-1.05361 l 0.07315,-0.83408 c 0,-0.2069 -0.09854,-0.39269 -0.219497,-0.54143 -0.121879,-0.14974 -0.272162,-0.29734 -0.468267,-0.43902 -0.3886,-0.2808 -0.928169,-0.57007 -1.638939,-0.98043 l -4.726584,-2.75107 -4.463183,-18.26246 -0.05848,-0.23412 -0.08783,0 c -0.141276,-0.27128 -0.364339,-0.4976 -0.658512,-0.64386 -0.343604,-0.17092 -0.808165,-0.22469 -1.273101,-0.26341 l 0,-0.0731 -0.321314,0 z m 0,0.77618 c 0.505047,0 0.961093,0.1009 1.25848,0.24877 0.300256,0.14935 0.380459,0.29568 0.380459,0.36583 0,0.0702 -0.08462,0.21715 -0.380459,0.36584 -0.295812,0.14869 -0.75294,0.2634 -1.25848,0.2634 -0.505627,0 -0.962669,-0.1155 -1.25847,-0.2634 -0.29715,-0.14858 -0.38047,-0.29452 -0.38047,-0.36584 0,-0.0713 0.07883,-0.2166 0.38047,-0.36583 0.297397,-0.14711 0.753432,-0.24877 1.25847,-0.24877 z m -1.975507,1.2286 c 0.121001,0.121 0.269367,0.22251 0.439005,0.3073 0.412635,0.20634 0.945274,0.33657 1.536502,0.33657 0.591237,0 1.127797,-0.13113 1.536511,-0.33657 0.167818,-0.0844 0.303642,-0.18723 0.424374,-0.3073 l 0,6.2e-4 1.156031,4.76987 -0.01457,0.0146 c -0.04499,0.0483 -0.09918,0.10789 -0.365839,0.23412 -0.440044,0.20822 -1.276067,0.49754 -2.736436,0.49754 -1.460379,0 -2.281707,-0.28931 -2.721815,-0.49754 -0.284373,-0.13452 -0.356135,-0.19488 -0.409732,-0.24874 l 1.156041,-4.7705 z m -2.429741,9.99519 c 1.103548,0.437 2.537492,0.79021 4.404637,0.79021 1.851035,0 3.3011,-0.32963 4.404648,-0.76094 l 0.790202,3.23338 c -0.145581,0.10389 -0.319011,0.22663 -0.64386,0.39509 -0.839633,0.43549 -2.263681,0.93653 -4.55099,0.93653 -2.287395,0 -3.696587,-0.50104 -4.536338,-0.93653 -0.343903,-0.17837 -0.535531,-0.29872 -0.673133,-0.39509 l 0.804834,-3.26265 z m 11.51708,8.50199 4.097344,2.37062 c 0.712763,0.41148 1.253895,0.72985 1.580394,0.9658 0.154204,0.11151 0.241325,0.21157 0.307304,0.29266 0.05859,0.074 0.05859,0.0587 0.05859,0.0586 0,-3.1e-4 -0.0075,0.0248 -0.05859,0.0878 -0.06598,0.0811 -0.153047,0.18121 -0.307304,0.29266 -0.326541,0.23594 -0.867674,0.53967 -1.580394,0.95118 l -8.545896,4.93144 c -1.42363,0.82193 -2.110998,1.18531 -2.677911,1.18531 -0.567043,0 -1.224195,-0.36291 -2.64864,-1.18531 l -8.560526,-4.93144 c -0.712699,-0.41151 -1.239254,-0.71522 -1.565763,-0.95118 -0.154247,-0.11138 -0.255967,-0.21157 -0.321935,-0.29266 -0.05098,-0.0628 -0.04381,-0.0879 -0.04381,-0.0878 0,3e-4 -0.01639,0.0156 0.04381,-0.0586 0.06598,-0.0811 0.167699,-0.18122 0.321935,-0.29266 0.326541,-0.23594 0.853064,-0.55429 1.565763,-0.9658 l 4.097344,-2.35598 -0.804834,3.33641 0,0.0146 0,0.0148 c -0.01446,0.12288 -0.01457,0.21904 -0.01457,0.32195 0,1.2226 0.976378,2.26612 2.414521,2.9852 1.438144,0.71907 3.379868,1.1414 5.531406,1.1414 2.151314,0 4.107841,-0.42235 5.546048,-1.1414 1.43808,-0.71908 2.39987,-1.7626 2.39987,-2.9852 0,-0.14922 -0.01457,-0.29214 -0.01457,-0.30731 l -0.01457,-0.0147 0,-0.0292 -0.804833,-3.35104 z m -13.594404,0.0139 c 1.53979,0.71841 3.657986,1.34626 6.482572,1.34626 2.81335,0 4.943863,-0.61677 6.482592,-1.33163 l 0.819464,3.42482 c 0.0075,0.0934 0.02924,0.17422 0.02924,0.24877 0,0.8867 -0.73848,1.76673 -2.063303,2.42913 -1.324823,0.66242 -3.200761,1.08288 -5.268005,1.08288 -2.06732,0 -3.928509,-0.42043 -5.253396,-1.08288 -1.324823,-0.6624 -2.063303,-1.54246 -2.063303,-2.42913 0,-0.10668 -0.0054,-0.1594 0,-0.20487 l 0,-0.0293 0.834106,-3.45348 0,-6.1e-4 z"
         style="color:#000000;fill:#ffffff" />
    </g>
  </g>
</svg>
