<?xml version="1.0" encoding="UTF-8" standalone="no"?>
<!-- Created with Inkscape (http://www.inkscape.org/) -->

<svg
   xmlns:dc="http://purl.org/dc/elements/1.1/"
   xmlns:cc="http://creativecommons.org/ns#"
   xmlns:rdf="http://www.w3.org/1999/02/22-rdf-syntax-ns#"
   xmlns:svg="http://www.w3.org/2000/svg"
   xmlns="http://www.w3.org/2000/svg"
   xmlns:sodipodi="http://sodipodi.sourceforge.net/DTD/sodipodi-0.dtd"
   xmlns:inkscape="http://www.inkscape.org/namespaces/inkscape"
   width="100"
   height="97.41703"
   id="svg2"
   sodipodi:version="0.32"
   inkscape:version="0.91pre1 r13432"
   sodipodi:docname="crafts.svg"
   inkscape:output_extension="org.inkscape.output.svg.inkscape"
   version="1.1"
   viewBox="0 0 99.999999 97.41703">
  <defs
     id="defs4" />
  <sodipodi:namedview
     id="base"
     pagecolor="#ffffff"
     bordercolor="#666666"
     borderopacity="1.0"
     inkscape:pageopacity="0.0"
     inkscape:pageshadow="2"
     inkscape:zoom="0.50734351"
     inkscape:cx="123.02807"
     inkscape:cy="-448.70832"
     inkscape:document-units="px"
     inkscape:current-layer="layer1"
     inkscape:window-width="906"
     inkscape:window-height="879"
     inkscape:window-x="0"
     inkscape:window-y="19"
     showgrid="false"
     fit-margin-top="0"
     fit-margin-left="0"
     fit-margin-right="0"
     fit-margin-bottom="0"
     inkscape:window-maximized="0" />
  <metadata
     id="metadata7">
    <rdf:RDF>
      <cc:Work
         rdf:about="">
        <dc:format>image/svg+xml</dc:format>
        <dc:type
           rdf:resource="http://purl.org/dc/dcmitype/StillImage" />
        <dc:title></dc:title>
      </cc:Work>
    </rdf:RDF>
  </metadata>
  <g
     inkscape:label="Capa 1"
     inkscape:groupmode="layer"
     id="layer1"
     transform="translate(-850.78761,-315.14738)">
    <g
       id="g65299-1-1"
       transform="matrix(0.25429295,0,0,0.25429295,635.20053,93.8221)"
       style="fill:#e49d9d;fill-opacity:1;stroke:none;stroke-width:5.16441107;stroke-miterlimit:4;stroke-dasharray:none">
      <path
         id="path2156-0-8"
         transform="translate(-1.2356376e-5,0)"
         d="m 1236.4531,1170.5234 c -10.235,6.4891 -68.072,12.6901 -78.998,14.6289 -1.1757,0.2087 -2.2757,0.3718 -3.3613,0.5235 l 69.7246,67.7695 12.6347,-82.9219 z"
         style="fill:#e49d9d;fill-opacity:1;fill-rule:evenodd;stroke:none;stroke-width:5.16441107;stroke-miterlimit:4;stroke-dasharray:none"
         inkscape:connector-curvature="0" />
      <path
         id="path2154-2-5"
         transform="translate(-1.2356376e-5,0)"
         d="m 1236.5098,1170.4863 c -8.8495,5.712 -54.6406,11.1993 -73.086,13.7676 l 61.125,61.75 11.961,-75.5176 z"
         style="fill:#e49d9d;fill-opacity:1;fill-rule:evenodd;stroke:none;stroke-width:5.16441107;stroke-miterlimit:4;stroke-dasharray:none"
         inkscape:connector-curvature="0" />
      <path
         d="m 1233.1887,1154.8845 c -143.15,-132.81 -250.95003,-233.84 -283.26003,-263.23 -35.638,-32.42 -73.801,-22.65 -88.835,-4.82 -13.616,16.127 -20.073,56.526 -3.1522,72.851 32.102,30.972 267.39003,216.14 274.23003,221.54 6.8397,5.4025 13.801,5.9643 25.283,3.9268 11.482,-2.0375 74.813,-8.7828 80.216,-15.622 5.4025,-6.8397 2.682,-6.5203 2.682,-6.5203 l -7.159,-8.123 z"
         style="fill:#e49d9d;fill-opacity:1;fill-rule:evenodd;stroke:none;stroke-width:5.16441107;stroke-miterlimit:4;stroke-dasharray:none"
         id="path2150-9-0"
         inkscape:connector-curvature="0" />
      <path
         d="m 1108.2053,1090.0822 a 15.805022,14.04902 38.304388 0 1 -24.8053,-19.5931 15.805022,14.04902 38.304388 0 1 24.8053,19.5931 z"
         style="fill:#e49d9d;fill-opacity:1;stroke:none;stroke-width:5.16441107;stroke-miterlimit:4;stroke-dasharray:none"
         id="path3726-9-5"
         inkscape:connector-curvature="0" />
      <path
         d="m 1099.4187,1075.6845 c -4.0461,-3.1959 -8.1968,-5.9811 -12.326,-8.3424 -1.3985,0.7936 -2.6665,1.8129 -3.7044,3.127 -0.079,0.099 -0.1329,0.2126 -0.208,0.3136 4.5112,2.3194 9.0175,5.1714 13.333,8.5802 4.3156,3.4088 8.1338,7.1321 11.435,10.983 0.081,-0.096 0.1785,-0.1756 0.2569,-0.2749 1.038,-1.3141 1.7359,-2.7836 2.184,-4.3279 -3.2536,-3.4703 -6.9243,-6.8631 -10.97,-10.059 z"
         style="opacity:0.8;fill:#e49d9d;fill-opacity:1;stroke:none;stroke-width:5.16441107;stroke-miterlimit:4;stroke-dasharray:none"
         id="path3728-4-9"
         inkscape:connector-curvature="0" />
    </g>
  </g>
</svg>
