<?xml version="1.0" encoding="UTF-8" standalone="no"?>
<!-- Created with Inkscape (http://www.inkscape.org/) -->

<svg
   xmlns:dc="http://purl.org/dc/elements/1.1/"
   xmlns:cc="http://creativecommons.org/ns#"
   xmlns:rdf="http://www.w3.org/1999/02/22-rdf-syntax-ns#"
   xmlns:svg="http://www.w3.org/2000/svg"
   xmlns="http://www.w3.org/2000/svg"
   xmlns:sodipodi="http://sodipodi.sourceforge.net/DTD/sodipodi-0.dtd"
   xmlns:inkscape="http://www.inkscape.org/namespaces/inkscape"
   width="80.256416"
   height="100"
   id="svg2"
   sodipodi:version="0.32"
   inkscape:version="0.91pre1 r13432"
   sodipodi:docname="debian.svg"
   inkscape:output_extension="org.inkscape.output.svg.inkscape"
   version="1.1"
   viewBox="0 0 80.256415 100">
  <defs
     id="defs4" />
  <sodipodi:namedview
     id="base"
     pagecolor="#ffffff"
     bordercolor="#666666"
     borderopacity="1.0"
     inkscape:pageopacity="0.0"
     inkscape:pageshadow="2"
     inkscape:zoom="0.43362832"
     inkscape:cx="165.50494"
     inkscape:cy="-83.52225"
     inkscape:document-units="px"
     inkscape:current-layer="layer1"
     inkscape:window-width="1598"
     inkscape:window-height="879"
     inkscape:window-x="0"
     inkscape:window-y="19"
     showgrid="false"
     fit-margin-top="0"
     fit-margin-left="0"
     fit-margin-right="0"
     fit-margin-bottom="0"
     inkscape:window-maximized="0" />
  <metadata
     id="metadata7">
    <rdf:RDF>
      <cc:Work
         rdf:about="">
        <dc:format>image/svg+xml</dc:format>
        <dc:type
           rdf:resource="http://purl.org/dc/dcmitype/StillImage" />
        <dc:title></dc:title>
      </cc:Work>
    </rdf:RDF>
  </metadata>
  <g
     inkscape:label="Capa 1"
     inkscape:groupmode="layer"
     id="layer1"
     transform="translate(-269.62772,-348.83993)">
    <g
       id="g8121-7-4-7"
       transform="matrix(1.4234268,0,0,1.4234268,170232.67,-26021.713)"
       style="fill:#e49d9d;fill-opacity:1;stroke:none;stroke-width:3.73813486;stroke-miterlimit:4;stroke-dasharray:none;stroke-opacity:1">
      <path
         id="path8123-8-9-4"
         d="m -119370.4,18563.224 c -1.16,0.02 0.22,0.6 1.74,0.834 0.42,-0.328 0.8,-0.66 1.14,-0.982 -0.94,0.232 -1.91,0.236 -2.88,0.148"
         inkscape:connector-curvature="0"
         style="fill:#e49d9d;fill-opacity:1;stroke:none;stroke-width:1.05498481;stroke-miterlimit:4;stroke-dasharray:none;stroke-opacity:1" />
      <path
         id="path8125-3-7-0"
         d="m -119364.15,18561.666 c 0.69,-0.956 1.2,-2.004 1.38,-3.087 -0.16,0.772 -0.58,1.439 -0.97,2.143 -2.18,1.369 -0.21,-0.814 0,-1.644 -2.34,2.945 -0.33,1.766 -0.41,2.588"
         inkscape:connector-curvature="0"
         style="fill:#e49d9d;fill-opacity:1;stroke:none;stroke-width:1.05498481;stroke-miterlimit:4;stroke-dasharray:none;stroke-opacity:1" />
      <path
         id="path8127-3-8-2"
         d="m -119361.84,18555.665 c 0.14,-2.097 -0.42,-1.434 -0.6,-0.634 0.21,0.113 0.39,1.478 0.6,0.634"
         inkscape:connector-curvature="0"
         style="fill:#e49d9d;fill-opacity:1;stroke:none;stroke-width:1.05498481;stroke-miterlimit:4;stroke-dasharray:none;stroke-opacity:1" />
      <path
         id="path8129-8-1-9"
         d="m -119374.81,18527.01 c 0.62,0.112 1.34,0.197 1.24,0.346 0.68,-0.149 0.83,-0.287 -1.24,-0.346"
         inkscape:connector-curvature="0"
         style="fill:#e49d9d;fill-opacity:1;stroke:none;stroke-width:1.05498481;stroke-miterlimit:4;stroke-dasharray:none;stroke-opacity:1" />
      <path
         id="path8131-8-7-3"
         d="m -119373.57,18527.356 -0.44,0.09 0.41,-0.04 0,-0.05"
         inkscape:connector-curvature="0"
         style="fill:#e49d9d;fill-opacity:1;stroke:none;stroke-width:1.05498481;stroke-miterlimit:4;stroke-dasharray:none;stroke-opacity:1" />
      <path
         id="path8133-3-8-3"
         d="m -119354.2,18556.46 c 0.1,1.882 -0.55,2.796 -1.11,4.413 l -1,0.502 c -0.83,1.6 0.1,1.016 -0.51,2.288 -1.29,1.143 -3.9,3.576 -4.74,3.798 -0.61,-0.01 0.41,-0.721 0.55,-0.998 -1.72,1.181 -1.38,1.773 -4.02,2.492 l -0.1,-0.172 c -6.49,3.053 -15.51,-2.998 -15.39,-11.254 -0.1,0.524 -0.2,0.393 -0.34,0.605 -0.34,-4.248 1.96,-8.514 5.83,-10.256 3.79,-1.876 8.23,-1.106 10.95,1.423 -1.49,-1.953 -4.46,-4.023 -7.98,-3.829 -3.44,0.05 -6.66,2.244 -7.74,4.62 -1.76,1.111 -1.97,4.283 -2.74,4.863 -1.03,7.604 1.95,10.889 6.99,14.753 0.79,0.535 0.22,0.617 0.33,1.024 -1.67,-0.784 -3.21,-1.969 -4.47,-3.419 0.67,0.98 1.39,1.933 2.33,2.681 -1.58,-0.535 -3.69,-3.828 -4.31,-3.962 2.72,4.875 11.05,8.55 15.41,6.727 -2.02,0.07 -4.58,0.04 -6.85,-0.796 -0.95,-0.49 -2.25,-1.505 -2.01,-1.694 5.94,2.222 12.09,1.683 17.24,-2.443 1.31,-1.02 2.74,-2.755 3.15,-2.779 -0.62,0.936 0.11,0.451 -0.37,1.277 1.3,-2.105 -0.57,-0.857 1.35,-3.635 l 0.7,0.975 c -0.26,-1.746 2.17,-3.868 1.93,-6.63 0.55,-0.845 0.62,0.909 0,2.852 0.82,-2.156 0.21,-2.502 0.42,-4.281 0.23,0.598 0.53,1.233 0.69,1.864 -0.54,-2.083 0.55,-3.509 0.81,-4.72 -0.26,-0.117 -0.82,0.922 -0.95,-1.54 0,-1.069 0.3,-0.56 0.4,-0.823 -0.21,-0.121 -0.76,-0.94 -1.09,-2.512 0.24,-0.369 0.65,0.958 0.98,1.012 -0.21,-1.25 -0.58,-2.202 -0.6,-3.161 -0.96,-2.018 -0.34,0.269 -1.12,-0.866 -1.03,-3.206 0.85,-0.745 0.98,-2.201 1.56,2.257 2.44,5.754 2.85,7.203 -0.31,-1.767 -0.81,-3.477 -1.43,-5.133 0.48,0.199 -0.76,-3.633 0.62,-1.095 -1.47,-5.411 -6.29,-10.467 -10.73,-12.839 0.54,0.496 1.23,1.12 0.98,1.218 -2.21,-1.314 -1.82,-1.416 -2.13,-1.971 -1.8,-0.732 -1.92,0.06 -3.11,0 -3.39,-1.797 -4.04,-1.606 -7.16,-2.732 l 0.14,0.662 c -2.24,-0.747 -2.61,0.284 -5.04,0 -0.15,-0.115 0.78,-0.417 1.54,-0.528 -2.17,0.286 -2.07,-0.428 -4.19,0.08 0.52,-0.367 1.07,-0.61 1.63,-0.923 -1.77,0.108 -4.22,1.03 -3.47,0.191 -2.88,1.29 -8.01,3.098 -10.89,5.796 l -0.1,-0.605 c -1.32,1.583 -5.75,4.727 -6.1,6.777 l -0.35,0.08 c -0.69,1.161 -1.13,2.478 -1.68,3.673 -0.9,1.529 -1.31,0.589 -1.19,0.828 -1.76,3.578 -2.64,6.585 -3.39,9.051 0.54,0.806 0,4.856 0.21,8.096 -0.88,16.005 11.24,31.544 24.48,35.131 1.94,0.694 4.83,0.667 7.29,0.739 -2.9,-0.829 -3.28,-0.439 -6.1,-1.424 -2.03,-0.959 -2.48,-2.053 -3.92,-3.305 l 0.57,1.009 c -2.83,-1.001 -1.65,-1.239 -3.95,-1.968 l 0.61,-0.796 c -0.92,-0.07 -2.43,-1.545 -2.84,-2.362 l -1,0.04 c -1.21,-1.487 -1.85,-2.558 -1.8,-3.388 l -0.33,0.578 c -0.36,-0.631 -4.43,-5.577 -2.32,-4.425 -0.39,-0.359 -0.91,-0.583 -1.48,-1.61 l 0.43,-0.49 c -1.01,-1.306 -1.87,-2.981 -1.8,-3.538 0.54,0.731 0.91,0.868 1.29,0.993 -2.57,-6.361 -2.71,-0.35 -4.65,-6.475 l 0.41,-0.03 c -0.32,-0.475 -0.51,-0.99 -0.76,-1.496 l 0.18,-1.781 c -1.85,-2.134 -0.52,-9.074 -0.25,-12.88 0.18,-1.548 1.54,-3.195 2.57,-5.779 l -0.63,-0.108 c 1.2,-2.095 6.86,-8.415 9.48,-8.09 1.27,-1.594 -0.25,0 -0.5,-0.407 2.79,-2.885 3.66,-2.038 5.54,-2.557 2.03,-1.205 -1.74,0.47 -0.77,-0.459 3.5,-0.896 2.48,-2.037 7.06,-2.492 0.48,0.275 -1.12,0.424 -1.53,0.781 2.93,-1.43 9.25,-1.105 13.36,0.793 4.77,2.228 10.12,8.814 10.34,15.011 l 0.24,0.06 c -0.13,2.463 0.37,5.312 -0.49,7.929 l 0.59,-1.238"
         inkscape:connector-curvature="0"
         style="fill:#e49d9d;fill-opacity:1;stroke:none;stroke-width:1.05498481;stroke-miterlimit:4;stroke-dasharray:none;stroke-opacity:1" />
      <path
         id="path8135-2-4-2"
         d="m -119383.11,18564.822 -0.16,0.816 c 0.77,1.04 1.37,2.166 2.35,2.978 -0.7,-1.372 -1.22,-1.939 -2.19,-3.794"
         inkscape:connector-curvature="0"
         style="fill:#e49d9d;fill-opacity:1;stroke:none;stroke-width:1.05498481;stroke-miterlimit:4;stroke-dasharray:none;stroke-opacity:1" />
      <path
         id="path8137-6-8-8"
         d="m -119381.3,18564.751 c -0.4,-0.448 -0.64,-0.987 -0.91,-1.524 0.26,0.944 0.78,1.755 1.27,2.58 l -0.36,-1.056"
         inkscape:connector-curvature="0"
         style="fill:#e49d9d;fill-opacity:1;stroke:none;stroke-width:1.05498481;stroke-miterlimit:4;stroke-dasharray:none;stroke-opacity:1" />
      <path
         id="path8139-8-8-7"
         d="m -119349.29,18557.794 -0.17,0.429 c -0.31,2.228 -0.99,4.431 -2.03,6.475 1.15,-2.156 1.89,-4.514 2.2,-6.904"
         inkscape:connector-curvature="0"
         style="fill:#e49d9d;fill-opacity:1;stroke:none;stroke-width:1.05498481;stroke-miterlimit:4;stroke-dasharray:none;stroke-opacity:1" />
      <path
         id="path8141-8-8-4"
         d="m -119374.58,18526.452 c 0.78,-0.289 1.93,-0.158 2.77,-0.348 -1.09,0.09 -2.17,0.146 -3.24,0.283 l 0.47,0.07"
         inkscape:connector-curvature="0"
         style="fill:#e49d9d;fill-opacity:1;stroke:none;stroke-width:1.05498481;stroke-miterlimit:4;stroke-dasharray:none;stroke-opacity:1" />
      <path
         id="path8143-8-9-0"
         d="m -119402.22,18541.146 c 0.18,1.68 -1.26,2.331 0.32,1.224 0.85,-1.911 -0.33,-0.528 -0.32,-1.224"
         inkscape:connector-curvature="0"
         style="fill:#e49d9d;fill-opacity:1;stroke:none;stroke-width:1.05498481;stroke-miterlimit:4;stroke-dasharray:none;stroke-opacity:1" />
      <path
         id="path8145-4-5-7"
         d="m -119404.08,18548.918 c 0.37,-1.12 0.43,-1.792 0.57,-2.44 -1.01,1.289 -0.46,1.563 -0.57,2.44"
         inkscape:connector-curvature="0"
         style="fill:#e49d9d;fill-opacity:1;stroke:none;stroke-width:1.05498481;stroke-miterlimit:4;stroke-dasharray:none;stroke-opacity:1" />
    </g>
  </g>
</svg>
