<?xml version="1.0" encoding="UTF-8" standalone="no"?>
<!-- Created with Inkscape (http://www.inkscape.org/) -->

<svg
   xmlns:dc="http://purl.org/dc/elements/1.1/"
   xmlns:cc="http://creativecommons.org/ns#"
   xmlns:rdf="http://www.w3.org/1999/02/22-rdf-syntax-ns#"
   xmlns:svg="http://www.w3.org/2000/svg"
   xmlns="http://www.w3.org/2000/svg"
   xmlns:sodipodi="http://sodipodi.sourceforge.net/DTD/sodipodi-0.dtd"
   xmlns:inkscape="http://www.inkscape.org/namespaces/inkscape"
   width="100.00004"
   height="83.643837"
   id="svg2"
   sodipodi:version="0.32"
   inkscape:version="0.91pre1 r13432"
   sodipodi:docname="driving.svg"
   inkscape:output_extension="org.inkscape.output.svg.inkscape"
   version="1.1"
   viewBox="0 0 100.00004 83.643839">
  <defs
     id="defs4" />
  <sodipodi:namedview
     id="base"
     pagecolor="#ffffff"
     bordercolor="#666666"
     borderopacity="1.0"
     inkscape:pageopacity="0.0"
     inkscape:pageshadow="2"
     inkscape:zoom="0.50734351"
     inkscape:cx="-22.409684"
     inkscape:cy="-247.24919"
     inkscape:document-units="px"
     inkscape:current-layer="layer1"
     inkscape:window-width="906"
     inkscape:window-height="879"
     inkscape:window-x="0"
     inkscape:window-y="19"
     showgrid="false"
     fit-margin-top="0"
     fit-margin-left="0"
     fit-margin-right="0"
     fit-margin-bottom="0"
     inkscape:window-maximized="0" />
  <metadata
     id="metadata7">
    <rdf:RDF>
      <cc:Work
         rdf:about="">
        <dc:format>image/svg+xml</dc:format>
        <dc:type
           rdf:resource="http://purl.org/dc/dcmitype/StillImage" />
        <dc:title></dc:title>
      </cc:Work>
    </rdf:RDF>
  </metadata>
  <g
     inkscape:label="Capa 1"
     inkscape:groupmode="layer"
     id="layer1"
     transform="translate(-996.22536,-530.37969)">
    <path
       inkscape:connector-curvature="0"
       style="fill:#e49d9d;fill-opacity:1;stroke:none;stroke-width:0.66173661;stroke-miterlimit:4;stroke-dasharray:none;stroke-opacity:1"
       d="m 1024.6685,530.37969 c -6.3123,0 -9.6634,3.44867 -11.208,7.48431 l -8.2092,21.19778 c -3.2607,0.41999 -9.02594,4.238 -9.02594,11.47493 l 0,26.95735 7.99114,0 0,8.62154 c 0,10.60653 15.0087,10.4811 15.0087,0 l 0,-8.62154 27.0037,0 0,0 26.9962,0 0,8.62154 c 0,10.4811 15.0164,10.60653 15.0164,0 l 0,-8.62154 7.9839,0 0,-26.95735 c 0,-7.23693 -5.7652,-11.05762 -9.0185,-11.47493 l -8.2171,-21.19778 c -1.5519,-4.03564 -4.9022,-7.48431 -11.2147,-7.48431 l -11.6052,0 -19.7614,0 -11.7473,0 z m -0.075,7.72044 21.636,0 0,0 0,0 21.6435,0 c 2.7063,0.075 3.8684,1.71723 4.6401,4.06084 l 6.1849,16.68183 -32.4685,0 0,0 0,0 -32.4612,0 6.1924,-16.68183 c 0.7717,-2.34361 1.9271,-4.03618 4.6328,-4.06084 z m -12.6092,28.85631 c 3.8304,0 6.9338,3.19619 6.9338,7.14258 0,3.94719 -3.1034,7.15062 -6.9338,7.15062 -3.8311,0 -6.9349,-3.20343 -6.9349,-7.15062 0,-3.94639 3.1038,-7.14258 6.9349,-7.14258 z m 68.5435,0 c 3.8226,0 6.9268,3.19619 6.9268,7.14258 0,3.94719 -3.1042,7.15062 -6.9268,7.15062 -3.8311,0 -6.9429,-3.20343 -6.9429,-7.15062 0,-3.94639 3.1118,-7.14258 6.9429,-7.14258 z"
       id="path2301-7-1-3" />
  </g>
</svg>
