<?xml version="1.0" encoding="UTF-8" standalone="no"?>
<!-- Created with Inkscape (http://www.inkscape.org/) -->

<svg
   xmlns:dc="http://purl.org/dc/elements/1.1/"
   xmlns:cc="http://creativecommons.org/ns#"
   xmlns:rdf="http://www.w3.org/1999/02/22-rdf-syntax-ns#"
   xmlns:svg="http://www.w3.org/2000/svg"
   xmlns="http://www.w3.org/2000/svg"
   xmlns:sodipodi="http://sodipodi.sourceforge.net/DTD/sodipodi-0.dtd"
   xmlns:inkscape="http://www.inkscape.org/namespaces/inkscape"
   width="344.1748"
   height="84.161911"
   id="svg2"
   sodipodi:version="0.32"
   inkscape:version="0.91pre1 r13432"
   sodipodi:docname="iune.svg"
   inkscape:output_extension="org.inkscape.output.svg.inkscape"
   version="1.1"
   viewBox="0 0 344.1748 84.161912">
  <defs
     id="defs4" />
  <sodipodi:namedview
     id="base"
     pagecolor="#ffffff"
     bordercolor="#666666"
     borderopacity="1.0"
     inkscape:pageopacity="0.0"
     inkscape:pageshadow="2"
     inkscape:zoom="1.3534466"
     inkscape:cx="117.14849"
     inkscape:cy="76.475515"
     inkscape:document-units="px"
     inkscape:current-layer="layer1"
     inkscape:window-width="1598"
     inkscape:window-height="879"
     inkscape:window-x="0"
     inkscape:window-y="19"
     showgrid="false"
     inkscape:window-maximized="0"
     fit-margin-top="0"
     fit-margin-left="0"
     fit-margin-right="0"
     fit-margin-bottom="0" />
  <metadata
     id="metadata7">
    <rdf:RDF>
      <cc:Work
         rdf:about="">
        <dc:format>image/svg+xml</dc:format>
        <dc:type
           rdf:resource="http://purl.org/dc/dcmitype/StillImage" />
        <dc:title></dc:title>
      </cc:Work>
    </rdf:RDF>
  </metadata>
  <g
     inkscape:label="Capa 1"
     inkscape:groupmode="layer"
     id="layer1"
     transform="translate(-304.38606,-532.76284)">
    <g
       style="color:#000000;font-style:normal;font-variant:normal;font-weight:normal;font-stretch:normal;font-size:174.5438385px;line-height:125%;font-family:Lato;-inkscape-font-specification:Lato;text-indent:0;text-align:start;text-decoration:none;text-decoration-line:none;letter-spacing:0px;word-spacing:0px;text-transform:none;direction:ltr;block-progression:tb;writing-mode:lr-tb;baseline-shift:baseline;text-anchor:start;display:inline;overflow:visible;visibility:visible;fill:#ffffff;fill-opacity:1;fill-rule:nonzero;stroke:none;stroke-width:1px;stroke-linecap:butt;stroke-linejoin:miter;stroke-opacity:1;marker:none;enable-background:accumulate"
       id="text33400-8-0"
       transform="matrix(1.2227287,0,0,1.2227287,-106.1243,-131.23709)">
      <path
         d="m 354.51023,585.0366 c 0.46545,-0.23273 1.51272,-0.69818 3.14179,-1.39635 1.74544,-0.69817 3.4327,-1.2218 5.06177,-1.57089 1.62908,-0.34909 3.02543,-0.34909 4.18905,0 1.16363,0.23272 1.5709,1.27998 1.22181,3.14179 -0.23273,1.04726 -0.75636,2.09452 -1.57089,3.14178 -0.69818,1.04727 -1.22181,2.09453 -1.5709,3.14179 -0.69817,1.51271 -1.39635,3.37452 -2.09452,5.58541 -0.58181,2.21089 -0.34909,4.01451 0.69817,5.41086 1.97817,0.23272 4.13087,-10e-6 6.45812,-0.69818 2.44361,-0.69817 4.6545,-1.39635 6.63267,-2.09453 0.58181,-0.23272 1.68726,-0.81453 3.31633,-1.74543 1.62908,-0.9309 3.31634,-1.80362 5.06177,-2.61816 1.8618,-0.9309 3.54906,-1.57089 5.06177,-1.91998 1.51271,-0.46545 2.44362,-0.34909 2.79271,0.34908 0.46545,0.81454 0.17454,1.68726 -0.87272,2.61816 -1.04727,0.9309 -2.38544,1.80362 -4.01451,2.61816 -1.51271,0.69817 -3.08361,1.39635 -4.71269,2.09452 -1.62907,0.58181 -2.67633,0.98908 -3.14178,1.22181 -2.55998,1.27999 -5.17814,2.55998 -7.85448,3.83997 -2.55997,1.16362 -5.23631,1.97816 -8.02901,2.44361 -2.44361,0.34909 -4.13087,-0.17454 -5.06178,-1.57089 -0.9309,-1.39635 -1.39635,-3.14179 -1.39635,-5.23632 0,-2.21089 0.29091,-4.53814 0.87272,-6.98175 0.69818,-2.55998 1.39636,-4.88723 2.09453,-6.98176 -2.67634,1.04727 -5.2945,2.03635 -7.85447,2.96725 -2.55998,0.81454 -5.06178,1.80362 -7.50539,2.96724 -2.09453,0.9309 -4.18905,1.97816 -6.28358,3.14179 -1.27999,0.34909 -2.26907,0.0582 -2.96724,-0.87272 -0.81454,-1.04726 -0.52363,-1.91998 0.87272,-2.61815 z m 20.42163,-35.25785 c 0.58181,-1.51271 1.45453,-2.7927 2.61816,-3.83997 5.45905,-2.23748 3.30064,10.16369 -1.39635,7.33084 -1.27999,-0.9309 -1.68726,-2.09452 -1.22181,-3.49087 z"
         style="font-style:normal;font-variant:normal;font-weight:normal;font-stretch:normal;font-family:'Notera Personal Use Only';-inkscape-font-specification:'Notera Personal Use Only';fill:#ffffff"
         id="path20973-4"
         inkscape:connector-curvature="0"
         sodipodi:nodetypes="ccsccccccccscccsccsccsscccccccccccc" />
      <path
         d="m 390.23717,593.41471 q 4.53814,-1.39635 8.90174,-3.31634 4.36359,-2.09452 8.72719,-4.01451 1.04726,-0.52363 3.14179,-1.91998 2.26907,-1.57089 4.53814,-2.7927 2.26907,-1.22181 4.18905,-1.57089 2.09453,-0.52363 3.14179,1.04726 0.87272,1.39635 0.17454,2.7927 -0.52363,1.22181 -1.74544,2.61816 -1.2218,1.22181 -2.61815,2.44361 -1.39635,1.04727 -2.09453,1.74544 -2.61816,2.61816 -5.06177,5.75995 -2.44361,3.14179 -2.44361,6.63266 3.14178,0 6.63266,-1.57089 3.49088,-1.5709 6.10904,-2.61816 8.3781,-3.83996 16.58166,-8.72719 4.53814,-2.7927 8.20356,-5.5854 1.5709,-1.04727 3.14179,0 1.74544,1.04726 1.39635,3.14179 -0.34909,1.57089 -1.57089,3.14178 -1.04727,1.39636 -1.91999,2.96725 -0.87272,1.39635 -1.74543,3.83996 -0.69818,2.44362 0,4.3636 1.91998,1.04726 4.71268,0.34909 2.7927,-0.87272 4.53814,-1.39635 7.50538,-2.61816 13.96351,-5.93449 1.2218,-0.52363 2.96724,-1.39635 1.91998,-1.04727 2.7927,0.69817 0.87272,1.5709 -0.34908,2.44362 -1.04727,0.69817 -2.26907,1.2218 l -11.5199,5.41086 q -3.66542,1.5709 -8.02901,3.66542 -4.3636,1.91998 -8.7272,0.87272 -3.14179,-0.87272 -3.66542,-3.49088 -0.34908,-2.7927 0.52363,-5.23631 l 2.61816,-6.28358 q -4.53814,2.09453 -8.90173,4.3636 -4.18906,2.26907 -8.7272,4.18905 -1.91998,1.04726 -4.53814,2.61816 -2.61815,1.39635 -5.5854,2.7927 -2.7927,1.2218 -5.5854,1.74544 -2.7927,0.69817 -4.88723,-0.17455 -2.09452,-0.69817 -2.26907,-2.61816 0,-2.09452 1.04726,-4.71268 1.04727,-2.61816 2.96725,-5.5854 1.91998,-2.96725 4.01451,-5.75995 l -4.18905,1.91998 q -7.1563,2.61816 -10.29809,4.01451 -3.14179,1.39635 -4.88723,1.74544 -1.04726,0.34909 -1.57089,-0.17454 -0.69818,-0.52363 -0.87272,-1.22181 -0.34909,-0.69818 0,-1.39635 0.17454,-0.69818 1.04726,-1.04726 z"
         style="font-style:normal;font-variant:normal;font-weight:normal;font-stretch:normal;font-family:'Notera Personal Use Only';-inkscape-font-specification:'Notera Personal Use Only';fill:#ffffff"
         id="path20975-4"
         inkscape:connector-curvature="0" />
      <path
         d="m 472.04642,593.58925 q 1.91998,-1.04726 6.63267,-3.49088 4.71268,-2.61815 9.59991,-4.88722 5.06177,-2.26907 9.25082,-3.14179 4.18905,-0.87272 5.23632,1.39635 0.69817,1.74544 -0.52364,3.49087 -1.04726,1.5709 -1.57089,2.96725 l -2.09453,4.88723 q 2.26907,-1.39635 4.53814,-2.44362 2.26907,-1.04726 4.53814,-2.09452 5.58541,-2.96725 11.5199,-6.28358 5.93449,-3.31633 12.04352,-5.06177 2.26907,-0.52363 4.01451,0 1.74544,0.34909 2.61816,1.57089 1.04726,1.04726 1.04726,2.96725 0,1.74544 -1.39635,3.83996 -1.57089,2.44362 -3.49088,4.3636 -1.74544,1.91998 -3.66542,4.18905 -0.34909,0.52363 -1.2218,1.39635 -0.87272,0.87272 -1.91999,2.09453 -0.87272,1.04726 -1.74544,2.26907 -0.69817,1.04726 -0.87271,1.91998 1.2218,0.34909 2.96724,0 1.91998,-0.34909 3.66542,-0.87272 1.91998,-0.69818 3.49088,-1.39635 1.74544,-0.69818 2.61816,-1.04726 l 7.15629,-3.14179 q 0.69818,-0.34909 1.74544,-1.04727 1.22181,-0.69817 2.44362,-1.2218 1.2218,-0.69818 2.26907,-1.22181 1.2218,-0.52363 1.91998,-0.52363 1.57089,0 1.57089,1.57089 0,1.5709 -1.39635,2.44362 -1.57089,0.87272 -3.31633,1.74543 -1.74544,0.69818 -3.66542,1.5709 -2.44362,1.39635 -4.71269,2.44361 -2.26907,1.04727 -4.71268,2.26907 -1.39635,0.69818 -4.53814,2.09453 -2.96724,1.22181 -6.10903,1.74544 -2.96725,0.69817 -5.23632,-0.17455 -2.26907,-0.69817 -2.26907,-4.18905 0,-1.74544 0.87272,-3.14179 0.87272,-1.39635 1.91998,-2.61816 1.22181,-1.39635 2.44362,-2.61815 1.39635,-1.22181 2.44361,-2.26907 1.04726,-0.87272 3.49088,-3.66542 2.44361,-2.7927 3.14179,-5.23632 -4.71269,0.52363 -9.59992,2.44362 -4.71268,1.91998 -8.72719,4.0145 -5.06177,2.44362 -10.47263,5.58541 -5.41086,2.96724 -9.42536,7.15629 -0.87272,0.69818 -1.91999,0.87272 -0.87272,0 -1.74544,-0.34908 -0.87271,-0.52364 -1.39635,-1.39636 -0.34908,-0.87271 0,-2.26907 0.52364,-1.57089 2.61816,-2.7927 0.87272,-1.39635 1.74544,-3.14179 0.87272,-1.91998 1.22181,-2.26907 0.34908,-1.2218 0.69817,-2.44361 0.34909,-1.39635 0.52363,-2.7927 -1.91998,0.52363 -3.83996,1.22181 -1.91998,0.69817 -2.96725,1.04726 -2.44361,1.04726 -4.88722,2.09453 -2.44362,0.87271 -4.88723,2.09452 -1.39635,0.69818 -2.61816,1.39635 -1.04726,0.69818 -2.44361,1.22181 -1.04727,0.52363 -2.09453,0.34909 -0.87272,-0.34909 -1.39635,-0.87272 -0.52363,-0.52363 -0.34909,-1.22181 0,-0.87272 1.22181,-1.39635 z"
         style="font-style:normal;font-variant:normal;font-weight:normal;font-stretch:normal;font-family:'Notera Personal Use Only';-inkscape-font-specification:'Notera Personal Use Only';fill:#ffffff"
         id="path20977-2"
         inkscape:connector-curvature="0" />
      <path
         d="m 551.83477,593.41471 q 3.14179,-1.5709 6.45813,-3.49088 3.49087,-1.91998 6.98175,-3.31633 2.26907,-4.01451 6.45812,-6.45813 4.18905,-2.61815 8.90174,-3.49087 2.44361,-0.34909 5.5854,0 3.31633,0.34909 5.06177,2.61816 1.22181,1.39635 0.52363,2.96724 -0.52363,1.57089 -2.09452,2.96725 -1.39635,1.39635 -3.31634,2.61815 -1.74543,1.04727 -2.61815,1.5709 -3.14179,1.91998 -6.98176,2.96724 -3.66542,0.87272 -7.50538,0.52363 l -0.69818,0 q 0.69818,3.83997 3.14179,5.93449 2.44362,2.09453 5.75995,3.14179 3.31633,0.87272 6.80721,0.69818 3.66542,-0.17454 6.63266,-0.69818 4.18906,-0.87272 8.20357,-2.09452 4.0145,-1.39635 7.85447,-3.14179 1.74544,-0.87272 3.49087,-1.5709 1.91999,-0.87271 3.49088,-1.74543 1.22181,-0.34909 2.44362,0.34908 1.39635,0.69818 0.34908,2.26907 -0.87272,1.39635 -2.44361,1.91999 -1.5709,0.52363 -2.7927,1.04726 l -8.72719,3.83996 q -8.02902,3.14179 -15.88349,5.23632 -3.49088,0.69817 -7.1563,0.34909 -3.49088,-0.17455 -6.63267,-1.39635 -2.96724,-1.39636 -5.41086,-3.83997 -2.44361,-2.44361 -3.49087,-6.28358 -0.34909,-1.39635 -0.69818,-2.7927 -0.17454,-1.39635 0.17455,-2.61816 -1.91999,0.87272 -3.83997,2.09453 -1.74544,1.04726 -3.14179,1.91998 -0.87272,0.34909 -2.26907,1.39635 -1.39635,0.87272 -2.7927,0 -1.04726,-0.69817 -0.87272,-1.91998 0,-1.22181 1.04726,-1.57089 z m 17.80348,-4.88723 q 4.18905,-0.17455 8.02901,-2.09453 4.01451,-1.91998 6.98176,-4.88723 -2.44362,-0.87271 -4.88723,-0.52363 -2.26907,0.34909 -4.3636,1.39635 -1.91998,1.04727 -3.49087,2.79271 -1.5709,1.57089 -2.26907,3.31633 z"
         style="font-style:normal;font-variant:normal;font-weight:normal;font-stretch:normal;font-family:'Notera Personal Use Only';-inkscape-font-specification:'Notera Personal Use Only';fill:#ffffff"
         id="path20979-3"
         inkscape:connector-curvature="0" />
    </g>
  </g>
</svg>
