<?xml version="1.0" encoding="UTF-8" standalone="no"?>
<!-- Created with Inkscape (http://www.inkscape.org/) -->

<svg
   xmlns:dc="http://purl.org/dc/elements/1.1/"
   xmlns:cc="http://creativecommons.org/ns#"
   xmlns:rdf="http://www.w3.org/1999/02/22-rdf-syntax-ns#"
   xmlns:svg="http://www.w3.org/2000/svg"
   xmlns="http://www.w3.org/2000/svg"
   xmlns:sodipodi="http://sodipodi.sourceforge.net/DTD/sodipodi-0.dtd"
   xmlns:inkscape="http://www.inkscape.org/namespaces/inkscape"
   width="82.230873"
   height="100"
   id="svg2"
   sodipodi:version="0.32"
   inkscape:version="0.91pre1 r13432"
   sodipodi:docname="serigraph.svg"
   inkscape:output_extension="org.inkscape.output.svg.inkscape"
   version="1.1"
   viewBox="0 0 82.230872 100">
  <defs
     id="defs4" />
  <sodipodi:namedview
     id="base"
     pagecolor="#ffffff"
     bordercolor="#666666"
     borderopacity="1.0"
     inkscape:pageopacity="0.0"
     inkscape:pageshadow="2"
     inkscape:zoom="0.15858407"
     inkscape:cx="-497.56758"
     inkscape:cy="378.91054"
     inkscape:document-units="px"
     inkscape:current-layer="layer1"
     inkscape:window-width="906"
     inkscape:window-height="879"
     inkscape:window-x="0"
     inkscape:window-y="19"
     showgrid="false"
     fit-margin-top="0"
     fit-margin-left="0"
     fit-margin-right="0"
     fit-margin-bottom="0"
     inkscape:window-maximized="0" />
  <metadata
     id="metadata7">
    <rdf:RDF>
      <cc:Work
         rdf:about="">
        <dc:format>image/svg+xml</dc:format>
        <dc:type
           rdf:resource="http://purl.org/dc/dcmitype/StillImage" />
        <dc:title></dc:title>
      </cc:Work>
    </rdf:RDF>
  </metadata>
  <g
     inkscape:label="Capa 1"
     inkscape:groupmode="layer"
     id="layer1"
     transform="translate(-932.70024,-811.27272)">
    <g
       style="fill:#e49d9d;fill-opacity:1;stroke:none"
       transform="matrix(1.8752445,0,0,1.8752445,-1302.2215,-863.97084)"
       id="g67871-4-9">
      <path
         d="m 1219.8592,942.02345 7.6333,-46.82305 7.2981,-0.85343 -5.9585,47.20873 z"
         inkscape:connector-curvature="0"
         style="fill:#e49d9d;fill-opacity:1;stroke:none;stroke-width:0.648;stroke-miterlimit:4;stroke-dasharray:none"
         sodipodi:nodetypes="ccccc"
         id="path4215-0-5-7-3" />
      <path
         d="m 1219.0744,944.24993 10.2224,-0.75476 -0.5092,-2.05201 -13.3656,0.95361 0.4064,2.02154 z"
         inkscape:connector-curvature="0"
         style="fill:#e49d9d;fill-opacity:1;stroke:none;stroke-width:0.648;stroke-miterlimit:4;stroke-dasharray:none"
         sodipodi:nodetypes="cccccc"
         id="path4213-2-6-6-4" />
      <path
         d="m 1191.87,943.74502 c 0,0 2.1899,-8.90229 3.3988,-13.32301 3.1199,-11.40859 9.9456,-34.06092 9.9456,-34.06092 0,0 3.0392,-1.1469 4.6372,-1.30755 1.6736,-0.1683 3.3506,0.3406 5.0323,0.3752 0.9038,0.0186 1.8178,0.0521 2.7104,-0.0902 2.3492,-0.37445 4.4742,-1.99848 6.8528,-1.99178 0.8577,0.002 2.4665,0.73193 2.4665,0.73193 l 0.6166,0.18297 -7.8888,47.30667 -1.127,-1.89992 c 0,0 -4.0358,-0.0189 -5.9963,0.39145 -1.4061,0.29432 -2.6657,1.09127 -4.0521,1.46758 -0.9655,0.26207 -1.9529,0.48333 -2.9516,0.54499 -2.1973,0.13569 -4.3915,-0.38869 -6.593,-0.39107 -1.8989,-0.002 -4.0043,-0.55411 -5.6874,0.32495 -0.6531,0.34107 -1.3642,1.7389 -1.3642,1.7389 z"
         inkscape:connector-curvature="0"
         style="fill:#e49d9d;fill-opacity:1;stroke:none;stroke-width:0.648;stroke-miterlimit:4;stroke-dasharray:none"
         sodipodi:nodetypes="cacaaaaccccaaaaac"
         id="path4217-7-9-9-2" />
      <path
         d="m 1218.387,939.77871 7.7094,-45.78585 c 0,0 0.4574,-0.0665 0.6828,-0.0328 0.2314,0.0345 0.6607,0.23669 0.6607,0.23669 l -7.6533,47.26226 c 0,0 -0.3598,-0.96749 -0.7155,-1.31928 -0.1832,-0.18119 -0.6835,-0.36098 -0.6835,-0.36098 z"
         inkscape:connector-curvature="0"
         style="fill:#e49d9d;fill-opacity:1;stroke:none;stroke-width:0.648;stroke-miterlimit:4;stroke-dasharray:none"
         sodipodi:nodetypes="ccaccac"
         id="path4221-8-3-3-7" />
      <path
         d="m 1207.504,944.78525 c -1.2952,-0.006 -2.5694,0.33304 -3.8488,0.53513 -1.7363,0.27425 -3.4459,0.72312 -5.1927,0.919 -1.5049,0.1688 -3.1163,0.74095 -4.5378,0.21888 -0.9,-0.33055 -1.9333,-1.02102 -2.1005,-1.96515 -0.1392,-0.78674 0.4231,-1.68702 1.0821,-2.13894 1.4009,-0.9608 3.3727,-0.46011 5.0708,-0.50795 1.7672,-0.0498 3.5311,0.20104 5.2988,0.23065 0.9719,0.0163 1.9529,0.10229 2.916,-0.0293 2.5745,-0.3515 4.9656,-1.59825 7.5305,-2.01436 1.6513,-0.2679 5.0097,-0.3024 5.0097,-0.3024 l 0.7453,2.01027 -4.1876,0.5464 0.3037,1.99106 4.8958,-0.27635 0.4561,1.08186 c 0,0 -4.9036,0.81661 -7.3699,0.72013 -1.383,-0.0541 -2.7222,-0.50293 -4.0882,-0.72524 -0.6596,-0.10733 -1.3149,-0.29077 -1.9831,-0.29376 z"
         inkscape:connector-curvature="0"
         style="fill:#e49d9d;fill-opacity:1;stroke:none;stroke-width:0.648;stroke-miterlimit:4;stroke-dasharray:none"
         sodipodi:nodetypes="aaaaaaaaaaccccccaaa"
         id="path4211-8-3-2-3" />
      <path
         d="m 1234.7024,893.88032 -0.082,0.27847 -5.8347,47.12905 0,0.038 0,0.0569 0.4056,2.06388 0.5891,-0.0126 5.8572,-48.74598 0.016,-0.15245 -0.097,-0.093 -0.4279,-0.44718 -0.1648,-0.13704 z"
         style="color:#000000;text-indent:0;text-transform:none;block-progression:tb;fill:#e49d9d;fill-opacity:1;stroke:none;stroke-width:0.648;stroke-miterlimit:4;stroke-dasharray:none"
         inkscape:connector-curvature="0"
         sodipodi:nodetypes="ccccccccccccc"
         id="path4219-2-0-6" />
    </g>
  </g>
</svg>
