<?xml version="1.0" encoding="UTF-8" standalone="no"?>
<!-- Created with Inkscape (http://www.inkscape.org/) -->

<svg
   xmlns:dc="http://purl.org/dc/elements/1.1/"
   xmlns:cc="http://creativecommons.org/ns#"
   xmlns:rdf="http://www.w3.org/1999/02/22-rdf-syntax-ns#"
   xmlns:svg="http://www.w3.org/2000/svg"
   xmlns="http://www.w3.org/2000/svg"
   xmlns:sodipodi="http://sodipodi.sourceforge.net/DTD/sodipodi-0.dtd"
   xmlns:inkscape="http://www.inkscape.org/namespaces/inkscape"
   width="100"
   height="87.498421"
   id="svg2"
   sodipodi:version="0.32"
   inkscape:version="0.91pre1 r13432"
   sodipodi:docname="tea.svg"
   inkscape:output_extension="org.inkscape.output.svg.inkscape"
   version="1.1"
   viewBox="0 0 99.999999 87.49842">
  <defs
     id="defs4" />
  <sodipodi:namedview
     id="base"
     pagecolor="#ffffff"
     bordercolor="#666666"
     borderopacity="1.0"
     inkscape:pageopacity="0.0"
     inkscape:pageshadow="2"
     inkscape:zoom="0.50734351"
     inkscape:cx="77.825427"
     inkscape:cy="55.995615"
     inkscape:document-units="px"
     inkscape:current-layer="layer1"
     inkscape:window-width="906"
     inkscape:window-height="879"
     inkscape:window-x="0"
     inkscape:window-y="19"
     showgrid="false"
     fit-margin-top="0"
     fit-margin-left="0"
     fit-margin-right="0"
     fit-margin-bottom="0"
     inkscape:window-maximized="0" />
  <metadata
     id="metadata7">
    <rdf:RDF>
      <cc:Work
         rdf:about="">
        <dc:format>image/svg+xml</dc:format>
        <dc:type
           rdf:resource="http://purl.org/dc/dcmitype/StillImage" />
        <dc:title></dc:title>
      </cc:Work>
    </rdf:RDF>
  </metadata>
  <g
     inkscape:label="Capa 1"
     inkscape:groupmode="layer"
     id="layer1"
     transform="translate(-895.99025,-829.76992)">
    <path
       style="fill:#e49d9d;fill-opacity:1;stroke:none;stroke-width:0.66222644;stroke-miterlimit:4;stroke-dasharray:none;stroke-opacity:1"
       inkscape:connector-curvature="0"
       d="m 977.23751,854.7697 -6.25367,0 0,-9.37488 c 0,-8.62959 -16.78248,-15.6249 -37.49673,-15.6249 -20.71422,0 -37.49686,6.99531 -37.49686,15.6249 l 0,56.24862 c 0,8.62959 16.78264,15.6249 37.49686,15.6249 20.71425,0 37.49673,-6.99531 37.49673,-15.6249 l 0,-9.37456 6.25367,0 c 10.30872,0 18.75274,-8.43713 18.75274,-18.74943 0,-10.31325 -8.44402,-18.74975 -18.75274,-18.74975 z m -64.06028,-12.73401 c 5.66492,-1.86479 12.87737,-2.89089 20.30988,-2.89089 7.44113,0 14.64502,1.0261 20.30957,2.89089 3.60633,1.18994 5.79646,2.46542 6.97496,3.35913 -1.1785,0.8934 -3.36863,2.16825 -6.97496,3.3585 -5.66455,1.86479 -12.86844,2.89089 -20.30957,2.89089 -7.43251,0 -14.64496,-1.0261 -20.30988,-2.89089 -3.60599,-1.19025 -5.79628,-2.4651 -6.96603,-3.3585 1.16975,-0.89371 3.36004,-2.16919 6.96603,-3.35913 z m 71.12339,36.98723 c -0.87975,0.86196 -2.71787,2.30819 -5.49735,2.30819 l -7.81943,0 0,-15.62395 7.81943,0 c 2.77948,0 4.63524,1.44591 5.49735,2.30818 0.87956,0.86164 2.31334,2.72296 2.31334,5.50411 0,2.78019 -1.45142,4.64152 -2.31334,5.50347 z"
       id="path77680-0-6-6" />
  </g>
</svg>
